<svg width="53" height="30" viewBox="0 0 53 30" fill="none" xmlns="http://www.w3.org/2000/svg">
<path d="M41.9108 16.1714H37.4004H15.1572H7.02253H2.83202C2.06001 16.1714 1.30719 16.4657 0.773146 17.0232C0.144603 17.6793 -0.119403 18.5837 0.0503621 19.4651C1.22227 25.549 6.57656 29.9647 12.7817 29.9647C15.3213 29.9647 17.5849 29.6353 19.6576 29.0888C20.9454 28.7493 22.1868 28.2566 23.3705 27.6462C26.1712 26.2018 28.8449 24.3465 31.5888 22.4422C34.8708 20.1646 38.212 17.8459 41.9108 16.1714Z" fill="#EF2853"/>
<path d="M12.8493 13.3331C13.0106 13.5617 13.2665 13.6838 13.5265 13.6838C13.6914 13.6838 13.8579 13.6347 14.0027 13.5325L15.1574 12.7181V14.5161H37.4006V11.1216C37.4006 4.98914 32.4114 0 26.279 0C20.6631 0 16.0068 4.18434 15.2621 9.59891L14.0027 8.71074C13.6291 8.44728 13.1128 8.53655 12.8493 8.91008C12.5859 9.28366 12.6751 9.80005 13.0488 10.0635L14.5489 11.1216L13.0488 12.1797C12.6751 12.4431 12.5859 12.9595 12.8493 13.3331ZM17.2853 10.1856H35.2727C35.7297 10.1856 36.1003 10.5561 36.1003 11.0132C36.1003 11.4704 35.7297 11.8409 35.2727 11.8409H17.2853C16.8282 11.8409 16.4576 11.4704 16.4576 11.0132C16.4576 10.5561 16.8282 10.1856 17.2853 10.1856Z" fill="#EF2853"/>
<path d="M49.1956 16.1714C48.9336 16.1714 48.6753 16.1744 48.4191 16.1803C48.3794 16.1744 48.3386 16.1714 48.2972 16.1714C47.163 16.1714 46.0359 16.3592 44.9657 16.7346C40.4193 18.3293 36.4325 21.0957 32.5325 23.8022C30.26 25.3792 27.9576 26.9768 25.5383 28.3438C27.9041 29.1217 31.4941 30.0001 35.6467 29.9999C36.1235 29.9999 36.6087 29.9884 37.0991 29.9637C42.4187 29.6962 46.2818 27.206 48.1111 25.7454C50.8612 23.5497 52.6062 20.854 52.5565 18.8778C52.514 17.1831 51.2575 16.1714 49.1956 16.1714Z" fill="#EF2853"/>
</svg>
