<svg width="202" height="55" viewBox="0 0 202 55" fill="none" xmlns="http://www.w3.org/2000/svg">
<path d="M54.8355 28.4741C54.2995 42.8591 42.4968 54.4995 28.1037 54.8446C28.0022 54.8486 27.9007 54.8486 27.7992 54.8486C22.8702 54.9136 20.2392 49.0589 23.5279 45.3886L26.6095 41.9496C27.247 41.2351 28.258 41.0118 29.1512 41.3569C30.8767 42.0268 33.3737 42.3069 35.0911 40.5895L41.8106 33.87C41.9893 33.6954 42.0786 33.4599 42.0786 33.2245C42.0786 32.9687 41.973 32.7169 41.7619 32.5342C41.3924 32.2135 40.824 32.2703 40.4748 32.6154L35.3226 37.7758C35.1439 37.9545 34.9125 38.0438 34.677 38.0438C34.34 38.0438 33.9949 37.857 33.8447 37.4835C33.6985 37.1222 33.8081 36.708 34.0842 36.4319L39.2284 31.2878C39.403 31.1091 39.4963 30.8777 39.4963 30.6422C39.4963 30.4189 39.4151 30.1997 39.2568 30.0251C38.9036 29.6394 38.2743 29.6597 37.9007 30.0291L32.7444 35.1855C32.5657 35.3641 32.3343 35.4575 32.0988 35.4575C31.8633 35.4575 31.6278 35.3641 31.4492 35.1855C31.2746 35.0109 31.1812 34.7754 31.1812 34.5399C31.1812 34.3044 31.2706 34.073 31.4492 33.8944L36.5934 28.7502C36.8695 28.4741 36.9791 28.06 36.8329 27.6986C36.6786 27.3251 36.3335 27.1383 36.0006 27.1383C35.7651 27.1383 35.5296 27.2277 35.355 27.4063L30.1946 32.5586C29.8089 32.9443 29.1512 32.9605 28.802 32.5383C28.664 32.3678 28.5909 32.1648 28.5909 31.9577C28.5909 31.7222 28.6802 31.4867 28.8588 31.3081L34.0193 26.1517C34.3603 25.8066 34.4171 25.2382 34.0964 24.8728C33.9137 24.6617 33.662 24.5602 33.4062 24.5602C33.1707 24.5602 32.9352 24.6495 32.7566 24.8281L26.0411 31.5436C24.3196 33.2651 24.6038 35.762 25.2738 37.4835C25.6189 38.3727 25.3915 39.3837 24.681 40.0252L18.3594 45.6931C14.8108 48.8762 9.28503 48.5392 6.25212 44.8567C2.13923 39.8709 -0.24406 33.399 0.0198475 26.371C0.559843 11.9819 12.3667 0.349706 26.7557 0.00865661C26.8613 0.0045965 26.9628 0.000536382 27.0643 0.000536382C31.9851 -0.0644255 34.612 5.7862 31.3193 9.44436L28.1361 12.9848C27.5515 13.6303 26.6258 13.8536 25.8219 13.5207C24.0923 12.8102 21.51 12.4691 19.7439 14.2353L16.9059 17.0733C14.4089 19.5744 14.4089 23.6223 16.9059 26.1233C19.4069 28.6203 23.4548 28.6203 25.9559 26.1233L28.7898 23.2853C30.5519 21.5232 30.2149 18.941 29.5125 17.2154C29.1837 16.4075 29.407 15.4777 30.0525 14.8971L36.4959 9.1358C40.0485 5.96079 45.5622 6.30589 48.5951 9.9803C52.712 14.9742 55.0994 21.442 54.8355 28.4741Z" fill="#EB0029"/>
<path d="M70.4226 34.7987C68.6688 34.7987 67.4227 34.4602 66.6843 33.7833C65.9766 33.0756 65.6228 32.0449 65.6228 30.6911C65.6228 30.3219 65.6382 29.7065 65.669 28.845C65.7305 27.9528 65.8074 26.9067 65.8997 25.7067C65.992 24.5067 66.0843 23.1991 66.1766 21.7838C66.2997 20.3377 66.4228 18.8762 66.5458 17.3993C66.792 14.2918 66.9612 11.7688 67.0535 9.83039C67.1766 7.892 67.2689 6.36898 67.3304 5.26133C67.4227 3.87677 67.515 2.99988 67.6073 2.63067C67.6996 2.23068 67.8996 2.03069 68.2073 2.03069C69.1611 2.03069 70.1303 2.01531 71.1149 1.98454C72.1302 1.923 73.0994 1.86146 74.0225 1.79993C74.9455 1.73839 75.807 1.69224 76.607 1.66147C77.4377 1.59994 78.1762 1.56917 78.8223 1.56917C80.7915 1.56917 82.4837 1.81531 83.899 2.3076C85.3144 2.79989 86.4528 3.49217 87.3143 4.38444C88.2065 5.27672 88.8527 6.3536 89.2527 7.61509C89.6834 8.87658 89.8988 10.2919 89.8988 11.8611C89.8988 14.261 89.4219 16.3994 88.4681 18.2762C87.5143 20.1531 85.9913 21.5838 83.899 22.5684L87.7758 28.1066C88.4835 29.1527 89.0219 29.9681 89.3911 30.5527C89.7603 31.1065 89.9449 31.5219 89.9449 31.7988C89.9449 32.0141 89.8065 32.3218 89.5296 32.7218C89.2834 33.091 88.8988 33.4756 88.3758 33.8756C87.8835 34.2448 87.2681 34.5679 86.5297 34.8448C85.822 35.1217 85.0221 35.2602 84.1298 35.2602C83.1452 35.2602 82.2837 34.9371 81.5453 34.291C80.8376 33.6449 80.1915 32.7987 79.6069 31.7526C79.0531 30.6757 78.5608 29.445 78.13 28.0605C77.73 26.6759 77.3454 25.2298 76.9762 23.7222C75.8686 23.6606 74.9609 23.5529 74.2532 23.3991C74.1609 24.7529 74.0686 26.0451 73.9763 27.2759C73.884 28.5066 73.8071 29.6142 73.7456 30.5988C73.684 31.5526 73.6225 32.3526 73.561 32.9987C73.4994 33.6141 73.4687 33.9833 73.4687 34.1064C73.4379 34.3525 73.3764 34.5371 73.284 34.6602C73.1917 34.7525 73.0071 34.7987 72.7302 34.7987H70.4226ZM77.8993 8.49198C77.53 8.49198 77.1147 8.52275 76.6531 8.58428C76.1916 8.61505 75.6993 8.6612 75.1763 8.72274C75.1147 9.79962 75.0378 11.0919 74.9455 12.5995C74.884 14.0764 74.7917 15.6609 74.6686 17.3532C75.7455 17.5993 76.6839 17.7224 77.4839 17.7224C78.4377 17.7224 79.2069 17.5378 79.7915 17.1686C80.4068 16.7994 80.8838 16.3532 81.2222 15.8302C81.5607 15.2763 81.776 14.6917 81.8683 14.0764C81.9914 13.461 82.0529 12.9072 82.0529 12.4149C82.0529 11.1534 81.7453 10.1842 81.1299 9.50732C80.5145 8.83043 79.4377 8.49198 77.8993 8.49198Z" fill="black"/>
<path d="M102.145 35.2602C100.792 35.2602 99.4377 35.091 98.0839 34.7525C96.7609 34.4141 95.561 33.8295 94.4841 32.9987C93.438 32.168 92.5765 31.0603 91.8996 29.6758C91.2227 28.2912 90.8842 26.5528 90.8842 24.4606C90.8842 23.6914 90.9457 22.7684 91.0688 21.6915C91.1919 20.6146 91.4226 19.5069 91.7611 18.3685C92.1303 17.2301 92.6226 16.1071 93.238 14.9994C93.8841 13.861 94.7148 12.8457 95.7302 11.9534C96.7455 11.0611 97.9762 10.3381 99.4223 9.78424C100.868 9.23041 102.591 8.9535 104.591 8.9535C106.191 8.9535 107.545 9.13811 108.653 9.50732C109.76 9.87654 110.653 10.3842 111.33 11.0303C112.006 11.6457 112.499 12.3688 112.806 13.1995C113.114 14.0302 113.268 14.9225 113.268 15.8763C113.268 17.2916 112.976 18.4916 112.391 19.4762C111.837 20.4607 111.099 21.2915 110.176 21.9684C109.284 22.6145 108.284 23.1222 107.176 23.4914C106.068 23.8606 104.976 24.1529 103.899 24.3683C102.822 24.5529 101.822 24.676 100.899 24.7375C100.007 24.7683 99.3147 24.7837 98.8224 24.7837C98.8224 25.3683 98.8993 25.9528 99.0531 26.5374C99.2377 27.0913 99.4993 27.5835 99.8377 28.0143C100.176 28.4451 100.622 28.7989 101.176 29.0758C101.73 29.3527 102.407 29.4912 103.207 29.4912C104.007 29.4912 104.622 29.3681 105.053 29.122C105.514 28.845 105.884 28.5527 106.161 28.2451C106.437 27.9066 106.668 27.6143 106.853 27.3682C107.068 27.0913 107.345 26.9528 107.684 26.9528C107.837 26.9528 108.099 26.999 108.468 27.0913C108.868 27.1528 109.268 27.3066 109.668 27.5528C110.068 27.7989 110.422 28.1374 110.73 28.5681C111.037 28.9989 111.191 29.5527 111.191 30.2296C111.191 31.1219 110.914 31.8911 110.36 32.5372C109.807 33.1833 109.084 33.7064 108.191 34.1064C107.33 34.5064 106.361 34.7987 105.284 34.9833C104.207 35.1679 103.161 35.2602 102.145 35.2602ZM103.022 15.0917C102.345 15.0917 101.761 15.2917 101.268 15.6917C100.807 16.0609 100.407 16.5378 100.068 17.1224C99.7608 17.707 99.5146 18.3531 99.33 19.0608C99.1762 19.7685 99.0531 20.4454 98.9608 21.0915C100.868 21.0607 102.407 20.7377 103.576 20.1223C104.776 19.5069 105.376 18.63 105.376 17.4916C105.376 16.8763 105.176 16.3224 104.776 15.8302C104.407 15.3379 103.822 15.0917 103.022 15.0917Z" fill="black"/>
<path d="M124.955 8.9535C127.57 8.9535 129.493 9.47656 130.724 10.5227C131.955 11.538 132.57 12.8457 132.57 14.4456C132.57 15.7994 132.139 16.8301 131.278 17.5378C130.447 18.2454 129.232 18.5993 127.632 18.5993C127.201 18.5993 126.909 18.5531 126.755 18.4608C126.601 18.3685 126.524 18.1993 126.524 17.9532C126.524 17.6762 126.493 17.3686 126.432 17.0301C126.401 16.6609 126.293 16.3224 126.109 16.0148C125.955 15.6763 125.693 15.3994 125.324 15.184C124.986 14.9687 124.493 14.861 123.847 14.861C122.986 14.861 122.293 15.0763 121.77 15.5071C121.247 15.9071 120.986 16.4148 120.986 17.0301C120.986 17.6762 121.247 18.1993 121.77 18.5993C122.324 18.9685 123.001 19.3223 123.801 19.6608C124.632 19.9992 125.524 20.3531 126.478 20.7223C127.432 21.0607 128.309 21.5222 129.109 22.1068C129.939 22.6914 130.616 23.4299 131.139 24.3221C131.693 25.1836 131.97 26.3067 131.97 27.6912C131.97 29.9065 131.185 31.7219 129.616 33.1372C128.047 34.5525 125.693 35.2602 122.555 35.2602C121.693 35.2602 120.694 35.1833 119.555 35.0294C118.447 34.9063 117.386 34.7064 116.371 34.4294C115.355 34.1218 114.494 33.7218 113.786 33.2295C113.109 32.7372 112.771 32.1218 112.771 31.3834C112.771 31.1065 112.817 30.768 112.909 30.3681C113.032 29.9681 113.201 29.5835 113.417 29.2143C113.663 28.845 113.94 28.5374 114.248 28.2912C114.586 28.0143 114.986 27.8758 115.448 27.8758C115.817 27.8758 116.155 27.9682 116.463 28.1528C116.771 28.3374 117.124 28.5374 117.524 28.7527C117.955 28.9373 118.478 29.122 119.094 29.3066C119.709 29.4912 120.524 29.5835 121.54 29.5835C122.309 29.5835 122.986 29.4912 123.57 29.3066C124.186 29.122 124.493 28.7066 124.493 28.0605C124.493 27.4759 124.247 27.0143 123.755 26.6759C123.263 26.3067 122.632 25.9682 121.863 25.6605C121.124 25.3529 120.309 25.0298 119.417 24.6914C118.555 24.3221 117.74 23.8452 116.971 23.2606C116.232 22.676 115.617 21.9376 115.125 21.0453C114.632 20.1223 114.386 18.9377 114.386 17.4916C114.386 15.9225 114.694 14.5994 115.309 13.5226C115.955 12.4149 116.771 11.5226 117.755 10.8457C118.771 10.1688 119.909 9.69193 121.17 9.41502C122.432 9.10734 123.693 8.9535 124.955 8.9535Z" fill="black"/>
<path d="M143.957 15.6455C143.865 16.8147 143.757 17.9685 143.634 19.107C143.542 20.2454 143.449 21.3223 143.357 22.3376C143.265 23.3529 143.188 24.2606 143.126 25.0606C143.095 25.8605 143.08 26.4759 143.08 26.9067C143.08 27.7066 143.172 28.2451 143.357 28.522C143.542 28.7681 143.849 28.8912 144.28 28.8912C144.618 28.8912 144.911 28.8297 145.157 28.7066C145.403 28.5835 145.634 28.4451 145.849 28.2912C146.065 28.1374 146.249 27.9989 146.403 27.8758C146.588 27.7528 146.788 27.6912 147.003 27.6912C147.218 27.6912 147.418 27.8143 147.603 28.0605C147.788 28.3066 147.88 28.8758 147.88 29.7681C147.88 31.4603 147.418 32.7987 146.495 33.7833C145.572 34.7679 143.988 35.2602 141.742 35.2602C139.526 35.2602 137.88 34.7525 136.803 33.7372C135.757 32.691 135.234 31.1065 135.234 28.9835C135.234 28.522 135.25 27.9835 135.28 27.3682C135.342 26.722 135.419 25.8913 135.511 24.876C135.603 23.8606 135.711 22.6145 135.834 21.1376C135.988 19.6608 136.142 17.8301 136.296 15.6455H133.85C133.603 15.6455 133.45 15.5994 133.388 15.5071C133.357 15.384 133.342 15.2148 133.342 14.9994L133.48 12.6457C133.511 12.2457 133.557 11.8611 133.619 11.4919C133.711 11.0919 133.865 10.738 134.08 10.4304C134.327 10.1227 134.665 9.87654 135.096 9.69193C135.526 9.50733 136.096 9.41502 136.803 9.41502C137.019 8.8612 137.265 8.19968 137.542 7.43048C137.819 6.66128 138.096 5.92285 138.373 5.21518C138.649 4.47675 138.911 3.86139 139.157 3.3691C139.434 2.87681 139.68 2.63067 139.896 2.63067H141.234C142.526 2.63067 143.418 3.03065 143.911 3.83062C144.403 4.63059 144.649 5.5844 144.649 6.69205C144.649 7.30741 144.603 8.21507 144.511 9.41502H149.357C149.849 9.41502 150.095 9.6304 150.095 10.0611L149.911 12.5534C149.849 13.4764 149.587 14.2302 149.126 14.8148C148.695 15.3686 147.788 15.6455 146.403 15.6455H143.957Z" fill="black"/>
<path d="M155.376 34.7987C154.422 34.7987 153.637 34.7064 153.022 34.5217C152.437 34.3064 151.96 34.0141 151.591 33.6449C151.253 33.2756 151.007 32.8295 150.853 32.3064C150.73 31.7526 150.668 31.1219 150.668 30.4142C150.668 29.9527 150.683 29.3066 150.714 28.4758C150.776 27.6143 150.868 26.4451 150.991 24.9683C151.114 23.4606 151.253 21.5684 151.407 19.2916C151.591 16.984 151.807 14.1379 152.053 10.7534C152.083 10.0765 152.16 9.67655 152.283 9.55348C152.376 9.46117 152.622 9.41502 153.022 9.41502H154.822C155.776 9.41502 156.545 9.50733 157.129 9.69193C157.745 9.87654 158.222 10.1535 158.56 10.5227C158.929 10.8919 159.175 11.338 159.299 11.8611C159.452 12.3841 159.529 12.9687 159.529 13.6149C159.529 14.0764 159.499 14.7687 159.437 15.6917C159.375 16.6147 159.283 17.8762 159.16 19.4762C159.068 21.0453 158.929 23.0145 158.745 25.3836C158.56 27.722 158.329 30.5527 158.052 33.8756C158.022 34.2448 157.945 34.491 157.822 34.614C157.699 34.7371 157.437 34.7987 157.037 34.7987H155.376ZM152.099 3.96908C152.099 2.73836 152.545 1.76916 153.437 1.0615C154.329 0.353833 155.529 0 157.037 0C158.36 0 159.314 0.276912 159.899 0.830735C160.514 1.35379 160.822 2.06146 160.822 2.95373C160.822 4.09215 160.391 5.04596 159.529 5.81516C158.699 6.55359 157.468 6.92281 155.837 6.92281C153.345 6.92281 152.099 5.93823 152.099 3.96908Z" fill="black"/>
<path d="M173.386 29.122C174.279 29.122 175.048 28.9989 175.694 28.7527C176.371 28.5066 176.956 28.2297 177.448 27.922C177.94 27.6143 178.355 27.3374 178.694 27.0913C179.032 26.8451 179.34 26.722 179.617 26.722C180.325 26.722 180.678 27.1836 180.678 28.1066C180.678 28.322 180.632 28.6297 180.54 29.0296C180.448 29.3989 180.325 29.7988 180.171 30.2296C180.017 30.6296 179.848 31.0142 179.663 31.3834C179.509 31.7526 179.355 32.0295 179.202 32.2141C179.048 32.368 178.771 32.6141 178.371 32.9526C178.002 33.291 177.494 33.6295 176.848 33.9679C176.202 34.3064 175.448 34.5987 174.586 34.8448C173.725 35.1217 172.771 35.2602 171.725 35.2602C170.556 35.2602 169.34 35.091 168.079 34.7525C166.848 34.3833 165.725 33.7679 164.71 32.9064C163.695 32.0141 162.848 30.8296 162.171 29.3527C161.525 27.8451 161.202 25.9682 161.202 23.7222C161.202 22.9222 161.248 22.0145 161.341 20.9992C161.464 19.9531 161.695 18.8916 162.033 17.8147C162.371 16.707 162.818 15.6302 163.371 14.5841C163.956 13.5072 164.725 12.5534 165.679 11.7226C166.633 10.8919 167.771 10.2304 169.094 9.73808C170.448 9.21503 172.048 8.9535 173.894 8.9535C175.402 8.9535 176.694 9.13811 177.771 9.50732C178.879 9.84577 179.786 10.3227 180.494 10.938C181.202 11.5226 181.725 12.2149 182.063 13.0149C182.432 13.8149 182.617 14.6764 182.617 15.5994C182.617 17.2609 182.094 18.4916 181.048 19.2916C180.002 20.0608 178.525 20.4454 176.617 20.4454C176.156 20.4454 175.832 20.4146 175.648 20.3531C175.494 20.2608 175.417 20.0761 175.417 19.7992C175.417 19.0608 175.402 18.3993 175.371 17.8147C175.34 17.2301 175.248 16.7378 175.094 16.3378C174.971 15.9378 174.771 15.6302 174.494 15.4148C174.217 15.1994 173.817 15.0917 173.294 15.0917C172.34 15.0917 171.571 15.3994 170.987 16.0148C170.433 16.6301 170.002 17.3839 169.694 18.2762C169.417 19.1377 169.233 20.03 169.14 20.953C169.079 21.8761 169.048 22.6453 169.048 23.2606C169.048 25.4452 169.387 26.9682 170.063 27.8297C170.771 28.6912 171.879 29.122 173.386 29.122Z" fill="black"/>
<path d="M194.1 8.9535C196.715 8.9535 198.638 9.47656 199.869 10.5227C201.1 11.538 201.715 12.8457 201.715 14.4456C201.715 15.7994 201.284 16.8301 200.423 17.5378C199.592 18.2454 198.377 18.5993 196.777 18.5993C196.346 18.5993 196.054 18.5531 195.9 18.4608C195.746 18.3685 195.669 18.1993 195.669 17.9532C195.669 17.6762 195.638 17.3686 195.577 17.0301C195.546 16.6609 195.438 16.3224 195.254 16.0148C195.1 15.6763 194.839 15.3994 194.469 15.184C194.131 14.9687 193.639 14.861 192.992 14.861C192.131 14.861 191.439 15.0763 190.916 15.5071C190.393 15.9071 190.131 16.4148 190.131 17.0301C190.131 17.6762 190.393 18.1993 190.916 18.5993C191.469 18.9685 192.146 19.3223 192.946 19.6608C193.777 19.9992 194.669 20.3531 195.623 20.7223C196.577 21.0607 197.454 21.5222 198.254 22.1068C199.084 22.6914 199.761 23.4299 200.284 24.3221C200.838 25.1836 201.115 26.3067 201.115 27.6912C201.115 29.9065 200.331 31.7219 198.761 33.1372C197.192 34.5525 194.839 35.2602 191.7 35.2602C190.839 35.2602 189.839 35.1833 188.7 35.0294C187.593 34.9063 186.531 34.7064 185.516 34.4294C184.5 34.1218 183.639 33.7218 182.931 33.2295C182.254 32.7372 181.916 32.1218 181.916 31.3834C181.916 31.1065 181.962 30.768 182.054 30.3681C182.177 29.9681 182.347 29.5835 182.562 29.2143C182.808 28.845 183.085 28.5374 183.393 28.2912C183.731 28.0143 184.131 27.8758 184.593 27.8758C184.962 27.8758 185.3 27.9682 185.608 28.1528C185.916 28.3374 186.27 28.5374 186.67 28.7527C187.1 28.9373 187.623 29.122 188.239 29.3066C188.854 29.4912 189.669 29.5835 190.685 29.5835C191.454 29.5835 192.131 29.4912 192.716 29.3066C193.331 29.122 193.639 28.7066 193.639 28.0605C193.639 27.4759 193.392 27.0143 192.9 26.6759C192.408 26.3067 191.777 25.9682 191.008 25.6605C190.269 25.3529 189.454 25.0298 188.562 24.6914C187.7 24.3221 186.885 23.8452 186.116 23.2606C185.377 22.676 184.762 21.9376 184.27 21.0453C183.777 20.1223 183.531 18.9377 183.531 17.4916C183.531 15.9225 183.839 14.5994 184.454 13.5226C185.1 12.4149 185.916 11.5226 186.9 10.8457C187.916 10.1688 189.054 9.69193 190.316 9.41502C191.577 9.10734 192.839 8.9535 194.1 8.9535Z" fill="black"/>
<path d="M70.292 44.7364C70.9685 44.7364 71.5307 44.8324 71.9787 45.0243C72.4266 45.2117 72.7625 45.486 72.9865 45.8471C73.215 46.2082 73.3293 46.6492 73.3293 47.1703C73.3293 47.6731 73.2265 48.1005 73.0208 48.4524C72.8197 48.7998 72.5637 49.0672 72.2529 49.2546C71.9421 49.442 71.6221 49.5471 71.293 49.57C71.6404 49.5791 71.9878 49.6637 72.3352 49.8236C72.6871 49.9836 72.9796 50.2396 73.2128 50.5915C73.4459 50.9435 73.5624 51.4165 73.5624 52.0107C73.5624 52.5729 73.4504 53.0689 73.2265 53.4985C73.0025 53.9236 72.646 54.255 72.1569 54.4927C71.6724 54.7303 71.0394 54.8492 70.2578 54.8492H66.5074V44.7364H70.292ZM68.2352 49.4328L67.6387 48.9049H69.675C70.2783 48.9049 70.7354 48.7792 71.0462 48.5278C71.3616 48.2719 71.5193 47.9176 71.5193 47.4651C71.5193 47.1589 71.453 46.9121 71.3205 46.7247C71.1925 46.5373 71.0005 46.4001 70.7445 46.3133C70.4932 46.2219 70.1892 46.1762 69.8327 46.1762H67.4193L68.2352 45.278V49.4328ZM69.9012 53.4094C70.4863 53.4094 70.9365 53.2768 71.2519 53.0117C71.5673 52.7466 71.725 52.3764 71.725 51.901C71.725 51.6268 71.6747 51.3914 71.5741 51.1949C71.4782 50.9937 71.341 50.8315 71.1628 50.7081C70.9891 50.5801 70.7834 50.4864 70.5457 50.427C70.3126 50.3676 70.0566 50.3378 69.7778 50.3378H67.6387L68.2352 49.8031V54.3076L67.4193 53.4094H69.9012Z" fill="black"/>
<path d="M82.0419 46.1762L82.8577 45.278V49.5974L82.4327 49.0557H86.2173V50.4955H82.4327L82.8577 49.9608V54.3076L82.0419 53.4094H86.9783V54.8492H81.0409V44.7364H86.9783V46.1762H82.0419Z" fill="black"/>
<path d="M97.9347 55C97.2171 55 96.5909 54.8858 96.0561 54.6572C95.5214 54.4287 95.1054 54.0859 94.8083 53.6288C94.5112 53.1671 94.3627 52.5958 94.3627 51.9148C94.3627 51.8371 94.3627 51.7685 94.3627 51.7091C94.3627 51.6451 94.3627 51.5742 94.3627 51.4965H96.1658C96.1658 51.5651 96.1658 51.6291 96.1658 51.6885C96.1658 51.7434 96.1658 51.8073 96.1658 51.8805C96.1658 52.429 96.3144 52.8403 96.6115 53.1146C96.9132 53.3843 97.3565 53.5191 97.9416 53.5191C98.5312 53.5191 98.9814 53.4208 99.2922 53.2243C99.6076 53.0277 99.7653 52.7124 99.7653 52.2781C99.7653 51.9627 99.6579 51.6954 99.4431 51.476C99.2328 51.252 98.9426 51.0555 98.5724 50.8863C98.2021 50.7172 97.7816 50.5595 97.3108 50.4133C96.7806 50.2487 96.2984 50.0362 95.8642 49.7756C95.43 49.5151 95.0826 49.186 94.822 48.7884C94.5615 48.3907 94.4312 47.9016 94.4312 47.3211C94.4312 46.7407 94.5798 46.247 94.8769 45.8402C95.1786 45.4334 95.5899 45.1249 96.111 44.9146C96.6366 44.6998 97.2331 44.5924 97.9005 44.5924C98.5998 44.5924 99.2145 44.7021 99.7448 44.9215C100.28 45.1409 100.698 45.4677 100.999 45.9019C101.301 46.3361 101.452 46.8778 101.452 47.5268C101.452 47.6137 101.452 47.6891 101.452 47.7531C101.452 47.8171 101.452 47.8902 101.452 47.9725H99.6419C99.6419 47.9131 99.6419 47.8536 99.6419 47.7942C99.6419 47.7302 99.6419 47.6685 99.6419 47.6091C99.6419 47.088 99.5002 46.7041 99.2168 46.4573C98.9334 46.2059 98.5038 46.0802 97.9279 46.0802C97.3657 46.0802 96.9337 46.1784 96.6321 46.375C96.3304 46.5715 96.1796 46.8846 96.1796 47.3143C96.1796 47.6342 96.2824 47.9016 96.4881 48.1165C96.6938 48.3313 96.9749 48.5187 97.3314 48.6787C97.6925 48.8341 98.1016 48.9918 98.5586 49.1517C99.1666 49.3528 99.6922 49.5814 100.136 49.8373C100.579 50.0887 100.922 50.4041 101.164 50.7835C101.406 51.1583 101.527 51.6359 101.527 52.2164C101.527 52.8106 101.377 53.3157 101.075 53.7316C100.778 54.143 100.36 54.4584 99.8202 54.6778C99.2854 54.8926 98.6569 55 97.9347 55Z" fill="black"/>
<path d="M115.395 46.1762H112.193L112.858 45.278V54.8492H111.048V45.278L111.748 46.1762H108.518V44.7364H115.395V46.1762Z" fill="black"/>
<path d="M132.964 46.1762L133.78 45.278V49.6591L133.218 49.1723H137.345V50.6189H133.218L133.78 50.0979V54.8492H131.984V44.7364H137.955V46.1762H132.964Z" fill="black"/>
<path d="M148.782 55C148.17 55 147.599 54.8858 147.068 54.6572C146.538 54.4287 146.072 54.0927 145.67 53.6494C145.272 53.2014 144.961 52.6552 144.737 52.0107C144.518 51.3617 144.408 50.6189 144.408 49.7825C144.408 48.946 144.518 48.2056 144.737 47.5611C144.961 46.9166 145.272 46.375 145.67 45.9362C146.067 45.4928 146.531 45.1592 147.062 44.9352C147.596 44.7067 148.17 44.5924 148.782 44.5924C149.404 44.5924 149.98 44.7067 150.51 44.9352C151.045 45.1592 151.511 45.4928 151.909 45.9362C152.307 46.375 152.615 46.9166 152.834 47.5611C153.058 48.2056 153.17 48.946 153.17 49.7825C153.17 50.6189 153.058 51.3617 152.834 52.0107C152.61 52.6552 152.297 53.2014 151.895 53.6494C151.498 54.0927 151.034 54.4287 150.503 54.6572C149.973 54.8858 149.4 55 148.782 55ZM148.782 53.5122C149.258 53.5122 149.687 53.3843 150.071 53.1283C150.455 52.8678 150.759 52.4632 150.983 51.9148C151.212 51.3663 151.326 50.6555 151.326 49.7825C151.326 48.9049 151.212 48.1964 150.983 47.6571C150.755 47.1132 150.449 46.7155 150.065 46.4641C149.681 46.2127 149.253 46.087 148.782 46.087C148.321 46.087 147.896 46.2127 147.507 46.4641C147.123 46.7155 146.815 47.1132 146.582 47.6571C146.353 48.1964 146.239 48.9049 146.239 49.7825C146.239 50.6601 146.353 51.3731 146.582 51.9216C146.815 52.4701 147.123 52.8723 147.507 53.1283C147.896 53.3843 148.321 53.5122 148.782 53.5122Z" fill="black"/>
<path d="M164.655 55C164.043 55 163.471 54.8858 162.941 54.6572C162.411 54.4287 161.945 54.0927 161.542 53.6494C161.145 53.2014 160.834 52.6552 160.61 52.0107C160.39 51.3617 160.281 50.6189 160.281 49.7825C160.281 48.946 160.39 48.2056 160.61 47.5611C160.834 46.9166 161.145 46.375 161.542 45.9362C161.94 45.4928 162.404 45.1592 162.934 44.9352C163.469 44.7067 164.043 44.5924 164.655 44.5924C165.277 44.5924 165.853 44.7067 166.383 44.9352C166.918 45.1592 167.384 45.4928 167.781 45.9362C168.179 46.375 168.488 46.9166 168.707 47.5611C168.931 48.2056 169.043 48.946 169.043 49.7825C169.043 50.6189 168.931 51.3617 168.707 52.0107C168.483 52.6552 168.17 53.2014 167.768 53.6494C167.37 54.0927 166.906 54.4287 166.376 54.6572C165.846 54.8858 165.272 55 164.655 55ZM164.655 53.5122C165.13 53.5122 165.56 53.3843 165.944 53.1283C166.328 52.8678 166.632 52.4632 166.856 51.9148C167.084 51.3663 167.199 50.6555 167.199 49.7825C167.199 48.9049 167.084 48.1964 166.856 47.6571C166.627 47.1132 166.321 46.7155 165.937 46.4641C165.553 46.2127 165.126 46.087 164.655 46.087C164.193 46.087 163.768 46.2127 163.38 46.4641C162.996 46.7155 162.687 47.1132 162.454 47.6571C162.226 48.1964 162.111 48.9049 162.111 49.7825C162.111 50.6601 162.226 51.3731 162.454 51.9216C162.687 52.4701 162.996 52.8723 163.38 53.1283C163.768 53.3843 164.193 53.5122 164.655 53.5122Z" fill="black"/>
<path d="M176.428 54.8492V44.7364H179.451C180.123 44.7364 180.733 44.8575 181.282 45.0997C181.83 45.3374 182.301 45.6779 182.694 46.1213C183.087 46.5647 183.391 47.0972 183.606 47.7188C183.821 48.3358 183.928 49.0237 183.928 49.7825C183.928 50.5412 183.821 51.2314 183.606 51.8531C183.391 52.4701 183.087 53.0026 182.694 53.4505C182.301 53.8985 181.83 54.2436 181.282 54.4858C180.733 54.7281 180.123 54.8492 179.451 54.8492H176.428ZM178.238 54.3076L177.422 53.4094H179.218C179.766 53.4094 180.256 53.2631 180.685 52.9706C181.119 52.6735 181.462 52.2553 181.714 51.7159C181.965 51.172 182.091 50.5275 182.091 49.7825C182.091 49.0329 181.965 48.3884 181.714 47.8491C181.462 47.3097 181.119 46.8961 180.685 46.6081C180.256 46.3201 179.766 46.1762 179.218 46.1762H177.422L178.238 45.278V54.3076Z" fill="black"/>
<path d="M194.607 55C193.889 55 193.263 54.8858 192.728 54.6572C192.194 54.4287 191.778 54.0859 191.481 53.6288C191.183 53.1671 191.035 52.5958 191.035 51.9148C191.035 51.8371 191.035 51.7685 191.035 51.7091C191.035 51.6451 191.035 51.5742 191.035 51.4965H192.838C192.838 51.5651 192.838 51.6291 192.838 51.6885C192.838 51.7434 192.838 51.8073 192.838 51.8805C192.838 52.429 192.987 52.8403 193.284 53.1146C193.585 53.3843 194.029 53.5191 194.614 53.5191C195.203 53.5191 195.654 53.4208 195.964 53.2243C196.28 53.0277 196.438 52.7124 196.438 52.2781C196.438 51.9627 196.33 51.6954 196.115 51.476C195.905 51.252 195.615 51.0555 195.245 50.8863C194.874 50.7172 194.454 50.5595 193.983 50.4133C193.453 50.2487 192.971 50.0362 192.536 49.7756C192.102 49.5151 191.755 49.186 191.494 48.7884C191.234 48.3907 191.103 47.9016 191.103 47.3211C191.103 46.7407 191.252 46.247 191.549 45.8402C191.851 45.4334 192.262 45.1249 192.783 44.9146C193.309 44.6998 193.905 44.5924 194.573 44.5924C195.272 44.5924 195.887 44.7021 196.417 44.9215C196.952 45.1409 197.37 45.4677 197.672 45.9019C197.973 46.3361 198.124 46.8778 198.124 47.5268C198.124 47.6137 198.124 47.6891 198.124 47.7531C198.124 47.8171 198.124 47.8902 198.124 47.9725H196.314C196.314 47.9131 196.314 47.8536 196.314 47.7942C196.314 47.7302 196.314 47.6685 196.314 47.6091C196.314 47.088 196.172 46.7041 195.889 46.4573C195.606 46.2059 195.176 46.0802 194.6 46.0802C194.038 46.0802 193.606 46.1784 193.304 46.375C193.003 46.5715 192.852 46.8846 192.852 47.3143C192.852 47.6342 192.955 47.9016 193.16 48.1165C193.366 48.3313 193.647 48.5187 194.004 48.6787C194.365 48.8341 194.774 48.9918 195.231 49.1517C195.839 49.3528 196.364 49.5814 196.808 49.8373C197.251 50.0887 197.594 50.4041 197.836 50.7835C198.078 51.1583 198.2 51.6359 198.2 52.2164C198.2 52.8106 198.049 53.3157 197.747 53.7316C197.45 54.143 197.032 54.4584 196.492 54.6778C195.958 54.8926 195.329 55 194.607 55Z" fill="black"/>
</svg>
