<svg xmlns="http://www.w3.org/2000/svg" xmlns:xlink="http://www.w3.org/1999/xlink" width="130" zoomAndPan="magnify" viewBox="0 0 97.5 30.000001" height="40" preserveAspectRatio="xMidYMid meet" version="1.0"><defs><g/><clipPath id="0208a81e8a"><path d="M 47 12 L 47.808594 12 L 47.808594 13 L 47 13 Z M 47 12 " clip-rule="nonzero"/></clipPath><clipPath id="efe5fda171"><rect x="0" width="48" y="0" height="29"/></clipPath><clipPath id="aff7fa2589"><path d="M 60.050781 2.902344 L 80.371094 2.902344 L 80.371094 23.226562 L 60.050781 23.226562 Z M 60.050781 2.902344 " clip-rule="nonzero"/></clipPath><clipPath id="61a18689f5"><path d="M 70 2.902344 L 73 2.902344 L 73 5 L 70 5 Z M 70 2.902344 " clip-rule="nonzero"/></clipPath><clipPath id="61a7c9d685"><path d="M 70 2.902344 L 72 2.902344 L 72 5 L 70 5 Z M 70 2.902344 " clip-rule="nonzero"/></clipPath><clipPath id="10690ad6e3"><path d="M 60.050781 14 L 80.371094 14 L 80.371094 23 L 60.050781 23 Z M 60.050781 14 " clip-rule="nonzero"/></clipPath><clipPath id="9f33378475"><path d="M 60.050781 2.902344 L 80.371094 2.902344 L 80.371094 23.226562 L 60.050781 23.226562 Z M 60.050781 2.902344 " clip-rule="nonzero"/></clipPath></defs><g transform="matrix(1, 0, 0, 1, 16, 0.000000000000005662)"><g clip-path="url(#efe5fda171)"><g fill="#018a2f" fill-opacity="1"><g transform="translate(0.882009, 12.424216)"><g><path d="M 8.695312 -4.640625 L 5.84375 -4.652344 C 5.652344 -4.652344 5.511719 -4.550781 5.511719 -4.410156 L 5.511719 -4.359375 C 5.511719 -3.988281 6.214844 -3.835938 6.214844 -3.246094 L 6.214844 -1.6875 C 6.046875 -1.585938 5.816406 -1.546875 5.5 -1.546875 C 3.898438 -1.546875 2.59375 -3.554688 2.59375 -6.0625 C 2.59375 -7.339844 3.195312 -8.285156 4.078125 -8.285156 C 5.535156 -8.285156 5.753906 -5.792969 7.390625 -5.792969 C 8.015625 -5.792969 8.414062 -6.203125 8.414062 -6.828125 C 8.414062 -8.132812 6.828125 -9.191406 4.652344 -9.191406 C 2.53125 -9.191406 0.332031 -7.453125 0.332031 -4.550781 C 0.332031 -2.058594 2.058594 0.128906 4.871094 0.128906 C 5.613281 0.128906 6.570312 -0.152344 7.160156 -0.613281 L 7.683594 -0.0117188 C 7.800781 0.101562 7.941406 0.128906 8.054688 0.128906 C 8.246094 0.128906 8.375 -0.0390625 8.375 -0.21875 L 8.375 -3.234375 C 8.375 -3.835938 9 -3.988281 9 -4.347656 L 9 -4.398438 C 9 -4.550781 8.875 -4.640625 8.695312 -4.640625 Z M 8.695312 -4.640625 "/></g></g></g><g fill="#018a2f" fill-opacity="1"><g transform="translate(10.054957, 12.424216)"><g><path d="M 7.351562 -5.535156 L 7.351562 -5.585938 C 7.351562 -5.78125 7.25 -5.921875 7.046875 -5.945312 L 5.472656 -6.175781 C 5.101562 -6.226562 4.859375 -6.085938 4.859375 -5.804688 L 4.859375 -5.726562 C 4.488281 -6.0625 3.976562 -6.265625 3.3125 -6.265625 C 1.699219 -6.265625 0.28125 -4.972656 0.28125 -3.070312 C 0.28125 -0.972656 1.75 0.128906 3.300781 0.128906 C 3.925781 0.128906 4.488281 -0.078125 4.859375 -0.433594 L 4.859375 -0.320312 C 4.859375 -0.128906 5 0 5.191406 0 L 7.019531 0 C 7.1875 0 7.300781 -0.0898438 7.300781 -0.242188 L 7.300781 -0.292969 C 7.300781 -0.652344 6.789062 -0.804688 6.789062 -1.394531 L 6.789062 -4.386719 C 6.789062 -5.089844 7.351562 -5.269531 7.351562 -5.535156 Z M 3.808594 -0.5 C 2.851562 -0.535156 2.429688 -2.992188 2.46875 -4.066406 C 2.507812 -5.089844 2.851562 -5.640625 3.476562 -5.640625 C 4.066406 -5.640625 4.628906 -5 4.628906 -4.039062 L 4.628906 -1.574219 C 4.628906 -0.882812 4.246094 -0.484375 3.808594 -0.5 Z M 3.808594 -0.5 "/></g></g></g><g fill="#018a2f" fill-opacity="1"><g transform="translate(17.745927, 12.424216)"><g><path d="M 4.601562 -6.265625 C 3.722656 -6.265625 3.121094 -5.816406 2.839844 -5 L 2.839844 -5.933594 C 2.839844 -6.1875 2.710938 -6.367188 2.378906 -6.214844 L 0.574219 -5.371094 C 0.382812 -5.269531 0.28125 -5.152344 0.28125 -5 L 0.28125 -4.960938 C 0.28125 -4.589844 0.894531 -4.539062 0.894531 -3.9375 L 0.894531 -1.394531 C 0.894531 -0.804688 0.382812 -0.652344 0.382812 -0.292969 L 0.382812 -0.242188 C 0.382812 -0.0898438 0.511719 0 0.691406 0 L 3.441406 0 C 3.617188 0 3.746094 -0.0898438 3.746094 -0.242188 L 3.746094 -0.292969 C 3.746094 -0.652344 3.070312 -0.804688 3.070312 -1.394531 L 3.070312 -3.773438 C 3.070312 -4.335938 3.132812 -5 3.542969 -5 C 4.179688 -5 3.65625 -3.796875 4.820312 -3.796875 C 5.5625 -3.796875 5.804688 -4.359375 5.804688 -5 C 5.804688 -5.714844 5.355469 -6.265625 4.601562 -6.265625 Z M 4.601562 -6.265625 "/></g></g></g><g fill="#018a2f" fill-opacity="1"><g transform="translate(23.469378, 12.424216)"><g><path d="M 6.800781 -1.394531 L 6.800781 -9.320312 C 6.800781 -9.667969 6.609375 -9.742188 6.238281 -9.628906 L 4.246094 -9.027344 C 4.066406 -8.976562 3.949219 -8.835938 3.949219 -8.695312 L 3.949219 -8.65625 C 3.949219 -8.285156 4.628906 -8.207031 4.628906 -7.609375 L 4.628906 -5.90625 C 4.285156 -6.136719 3.847656 -6.265625 3.3125 -6.265625 C 1.699219 -6.265625 0.28125 -4.972656 0.28125 -3.070312 C 0.28125 -0.972656 1.75 0.128906 3.300781 0.128906 C 3.925781 0.128906 4.476562 -0.078125 4.859375 -0.433594 L 4.859375 -0.320312 C 4.859375 -0.128906 4.988281 0 5.191406 0 L 7.019531 0 C 7.199219 0 7.3125 -0.0898438 7.3125 -0.242188 L 7.3125 -0.292969 C 7.3125 -0.652344 6.800781 -0.804688 6.800781 -1.394531 Z M 3.808594 -0.5 C 2.851562 -0.535156 2.429688 -2.992188 2.46875 -4.066406 C 2.507812 -5.089844 2.851562 -5.640625 3.476562 -5.640625 C 4.066406 -5.640625 4.628906 -4.859375 4.628906 -4.039062 L 4.628906 -1.574219 C 4.628906 -0.882812 4.246094 -0.484375 3.808594 -0.5 Z M 3.808594 -0.5 "/></g></g></g><g fill="#018a2f" fill-opacity="1"><g transform="translate(31.007035, 12.424216)"><g><path d="M 5.652344 -2.019531 C 5.421875 -1.714844 4.921875 -1.457031 4.285156 -1.457031 C 3.566406 -1.457031 3.003906 -1.855469 2.671875 -2.492188 C 3.054688 -2.480469 3.503906 -2.507812 3.949219 -2.582031 C 5.152344 -2.773438 5.996094 -3.515625 5.996094 -4.410156 C 5.996094 -5.535156 4.972656 -6.277344 3.453125 -6.265625 C 1.738281 -6.253906 0.28125 -5.011719 0.28125 -3.105469 C 0.28125 -1.175781 1.625 0.128906 3.515625 0.128906 C 5.355469 0.128906 6.085938 -1.136719 6.125 -1.839844 C 6.136719 -2.121094 5.832031 -2.199219 5.652344 -2.019531 Z M 3.183594 -5.585938 C 3.605469 -5.585938 3.925781 -5.140625 3.9375 -4.578125 C 3.9375 -3.695312 3.632812 -3.300781 3.070312 -3.195312 C 2.902344 -3.171875 2.671875 -3.15625 2.429688 -3.171875 C 2.351562 -3.476562 2.3125 -3.808594 2.3125 -4.15625 C 2.3125 -5 2.660156 -5.585938 3.183594 -5.585938 Z M 3.183594 -5.585938 "/></g></g></g><g fill="#018a2f" fill-opacity="1"><g transform="translate(37.382104, 12.424216)"><g><path d="M 7.261719 -1.394531 L 7.097656 -3.605469 C 6.941406 -5.640625 5.765625 -6.265625 4.652344 -6.265625 C 3.808594 -6.265625 3.171875 -5.921875 2.824219 -5.304688 L 2.824219 -5.90625 C 2.824219 -6.164062 2.660156 -6.378906 2.339844 -6.214844 L 0.550781 -5.332031 C 0.371094 -5.242188 0.242188 -5.164062 0.242188 -5.011719 L 0.242188 -4.972656 C 0.242188 -4.601562 0.921875 -4.527344 0.921875 -3.914062 L 0.921875 -1.394531 C 0.921875 -0.804688 0.359375 -0.652344 0.359375 -0.28125 L 0.359375 -0.230469 C 0.359375 -0.078125 0.472656 0.0117188 0.664062 0.0117188 L 3.425781 0.0117188 C 3.617188 0.0117188 3.734375 -0.078125 3.734375 -0.230469 L 3.734375 -0.28125 C 3.734375 -0.652344 3.171875 -0.804688 3.171875 -1.394531 L 3.171875 -4.179688 C 3.171875 -4.921875 3.441406 -5.421875 4.003906 -5.421875 C 4.578125 -5.421875 4.820312 -4.949219 4.882812 -3.683594 L 5.011719 -1.394531 C 5.050781 -0.804688 4.550781 -0.652344 4.550781 -0.28125 L 4.550781 -0.230469 C 4.550781 -0.078125 4.667969 0.0117188 4.859375 0.0117188 L 7.414062 0.0117188 C 7.59375 0.0117188 7.722656 -0.078125 7.722656 -0.230469 L 7.722656 -0.28125 C 7.722656 -0.652344 7.300781 -0.804688 7.261719 -1.394531 Z M 7.261719 -1.394531 "/></g></g></g><g fill="#018a2f" fill-opacity="1"><g transform="translate(45.254951, 12.424216)"><g/></g></g><g fill="#018a2f" fill-opacity="1"><g transform="translate(45.254951, 12.424216)"><g/></g></g><g clip-path="url(#0208a81e8a)"><g fill="#018a2f" fill-opacity="1"><g transform="translate(47.764475, 12.424216)"><g/></g></g></g><g fill="#018a2f" fill-opacity="1"><g transform="translate(6.829906, 22.853406)"><g><path d="M 8.285156 -1.304688 C 8.234375 -2.46875 7.734375 -3.402344 6.765625 -4.003906 C 7.621094 -4.539062 8.144531 -5.410156 8.144531 -6.1875 C 8.144531 -8.105469 6.609375 -9.078125 4.269531 -9.078125 L 0.832031 -9.078125 C 0.652344 -9.078125 0.523438 -8.988281 0.523438 -8.835938 L 0.523438 -8.785156 C 0.523438 -8.425781 1.035156 -8.273438 1.035156 -7.683594 L 1.035156 -1.394531 C 1.035156 -0.804688 0.523438 -0.652344 0.523438 -0.292969 L 0.523438 -0.242188 C 0.523438 -0.0898438 0.652344 0 0.832031 0 L 3.644531 0 C 3.824219 0 3.949219 -0.0898438 3.949219 -0.242188 L 3.949219 -0.292969 C 3.949219 -0.652344 3.375 -0.804688 3.375 -1.394531 L 3.375 -3.453125 L 4.792969 -3.464844 C 5.5625 -3.054688 5.90625 -2.199219 5.921875 -1.203125 C 5.921875 -0.742188 5.523438 -0.652344 5.523438 -0.292969 L 5.523438 -0.242188 C 5.523438 -0.0898438 5.640625 0 5.832031 0 L 8.527344 0 C 8.707031 0 8.835938 -0.0898438 8.835938 -0.242188 L 8.835938 -0.292969 C 8.835938 -0.652344 8.3125 -0.816406 8.285156 -1.304688 Z M 4.195312 -4.320312 C 3.65625 -4.320312 3.375 -4.601562 3.375 -5.34375 L 3.375 -7.519531 C 3.375 -7.902344 3.566406 -8.183594 3.863281 -8.183594 L 4.089844 -8.183594 C 4.871094 -8.183594 5.726562 -7.328125 5.726562 -5.945312 C 5.726562 -4.847656 5.203125 -4.320312 4.550781 -4.320312 Z M 4.195312 -4.320312 "/></g></g></g><g fill="#018a2f" fill-opacity="1"><g transform="translate(15.555536, 22.853406)"><g><path d="M 3.808594 0.128906 C 5.675781 0.128906 7.222656 -1.1875 7.222656 -3.054688 C 7.222656 -4.933594 5.640625 -6.265625 3.722656 -6.265625 C 1.890625 -6.265625 0.269531 -4.972656 0.269531 -3.082031 C 0.269531 -1.226562 1.855469 0.128906 3.808594 0.128906 Z M 4.078125 -0.5 C 3.042969 -0.5 2.53125 -3.003906 2.53125 -4.039062 C 2.53125 -5.074219 2.75 -5.640625 3.363281 -5.640625 C 4.371094 -5.640625 4.898438 -3.070312 4.898438 -2.070312 C 4.898438 -1.113281 4.679688 -0.5 4.078125 -0.5 Z M 4.078125 -0.5 "/></g></g></g><g fill="#018a2f" fill-opacity="1"><g transform="translate(23.054874, 22.853406)"><g><path d="M 3.808594 0.128906 C 5.675781 0.128906 7.222656 -1.1875 7.222656 -3.054688 C 7.222656 -4.933594 5.640625 -6.265625 3.722656 -6.265625 C 1.890625 -6.265625 0.269531 -4.972656 0.269531 -3.082031 C 0.269531 -1.226562 1.855469 0.128906 3.808594 0.128906 Z M 4.078125 -0.5 C 3.042969 -0.5 2.53125 -3.003906 2.53125 -4.039062 C 2.53125 -5.074219 2.75 -5.640625 3.363281 -5.640625 C 4.371094 -5.640625 4.898438 -3.070312 4.898438 -2.070312 C 4.898438 -1.113281 4.679688 -0.5 4.078125 -0.5 Z M 4.078125 -0.5 "/></g></g></g><g fill="#018a2f" fill-opacity="1"><g transform="translate(30.490286, 22.853406)"><g><path d="M 2.980469 0.128906 C 4.371094 0.128906 5.101562 -0.90625 5.101562 -1.890625 C 5.101562 -2.136719 4.792969 -2.210938 4.617188 -1.980469 C 4.476562 -1.75 4.269531 -1.507812 3.773438 -1.507812 C 3.453125 -1.507812 3.195312 -1.765625 3.195312 -2.199219 L 3.195312 -5.269531 L 4.511719 -5.269531 C 4.679688 -5.269531 4.808594 -5.394531 4.808594 -5.5625 L 4.808594 -5.84375 C 4.808594 -6.007812 4.679688 -6.136719 4.511719 -6.136719 L 3.195312 -6.136719 L 3.195312 -7.429688 C 3.195312 -7.632812 3.054688 -7.761719 2.851562 -7.761719 L 2.558594 -7.761719 C 2.390625 -7.761719 2.25 -7.632812 2.210938 -7.429688 C 2.046875 -6.648438 1.433594 -6.136719 0.652344 -6.136719 L 0.410156 -6.136719 C 0.230469 -6.136719 0.113281 -6.023438 0.113281 -5.84375 L 0.113281 -5.5625 C 0.113281 -5.394531 0.242188 -5.269531 0.410156 -5.269531 L 0.894531 -5.269531 L 0.894531 -2.238281 C 0.894531 -0.691406 1.714844 0.128906 2.980469 0.128906 Z M 2.980469 0.128906 "/></g></g></g><g fill="#018a2f" fill-opacity="1"><g transform="translate(35.638887, 22.853406)"><g><path d="M 3.105469 0.113281 C 4.882812 0.113281 5.894531 -0.703125 5.894531 -1.765625 C 5.894531 -4.117188 2.621094 -3.195312 2.621094 -4.949219 C 2.621094 -5.320312 2.824219 -5.675781 3.222656 -5.675781 C 4.105469 -5.675781 3.695312 -3.949219 4.933594 -3.949219 C 5.410156 -3.949219 5.792969 -4.285156 5.792969 -4.730469 C 5.792969 -5.5625 4.730469 -6.265625 3.105469 -6.265625 C 1.507812 -6.265625 0.410156 -5.460938 0.410156 -4.320312 C 0.410156 -1.839844 3.796875 -2.824219 3.796875 -1.152344 C 3.796875 -0.640625 3.492188 -0.449219 3.105469 -0.449219 C 2.046875 -0.449219 2.480469 -2.199219 1.203125 -2.199219 C 0.691406 -2.199219 0.292969 -1.957031 0.292969 -1.382812 C 0.292969 -0.484375 1.496094 0.113281 3.105469 0.113281 Z M 3.105469 0.113281 "/></g></g></g><g fill="#018a2f" fill-opacity="1"><g transform="translate(41.832874, 22.853406)"><g/></g></g></g></g><g clip-path="url(#aff7fa2589)"><path fill="#3f1e10" d="M 79.628906 21.53125 C 79.429688 21.429688 79.238281 21.332031 79.21875 21.195312 C 79.15625 20.761719 78.714844 20.566406 78.15625 20.320312 L 78.0625 20.277344 C 77.695312 20.113281 77.488281 19.554688 77.304688 19.0625 C 77.199219 18.773438 77.105469 18.523438 76.992188 18.375 C 76.808594 18.140625 76.488281 18.132812 76.230469 18.125 C 76.023438 18.121094 75.894531 18.113281 75.878906 18.039062 C 75.804688 17.707031 75.328125 17.664062 74.820312 17.664062 C 74.511719 17.664062 74.398438 17.375 74.265625 17.039062 C 74.191406 16.84375 74.113281 16.644531 73.988281 16.484375 C 73.75 16.183594 73.246094 16.144531 72.757812 16.101562 C 72.523438 16.082031 72.28125 16.0625 72.074219 16.015625 C 71.847656 15.960938 71.6875 15.777344 71.503906 15.566406 C 71.203125 15.21875 70.828125 14.792969 69.980469 14.703125 C 69.824219 13.523438 69.652344 11.574219 69.730469 11.125 C 69.824219 10.582031 70.507812 9.792969 70.945312 9.476562 C 71.285156 9.785156 71.828125 9.957031 72.433594 9.957031 C 72.519531 9.957031 72.605469 9.953125 72.691406 9.949219 C 73.007812 9.921875 73.324219 9.851562 73.625 9.742188 C 74.042969 9.585938 74.414062 9.355469 74.730469 9.058594 C 75.054688 8.753906 75.304688 8.382812 75.480469 7.960938 L 75.5 7.921875 L 75.464844 7.894531 C 75.15625 7.636719 74.730469 7.4375 74.273438 7.328125 C 73.835938 7.222656 73.390625 7.203125 72.976562 7.277344 C 72.617188 7.339844 72.289062 7.46875 72.003906 7.660156 L 72 7.65625 C 71.992188 7.664062 71.984375 7.671875 71.976562 7.679688 C 71.566406 7.960938 71.253906 8.371094 71.046875 8.894531 C 70.664062 9.058594 70.203125 9.402344 69.808594 9.808594 C 69.863281 9.261719 69.957031 8.417969 70.011719 8.199219 C 70.53125 8.019531 71.042969 7.589844 71.425781 7.015625 L 71.445312 6.988281 C 71.652344 6.675781 71.8125 6.332031 71.921875 5.972656 C 72.078125 5.46875 72.128906 4.957031 72.074219 4.449219 C 72.015625 3.925781 71.847656 3.421875 71.574219 2.953125 L 71.554688 2.917969 L 71.507812 2.925781 C 71.042969 3.027344 70.546875 3.277344 70.109375 3.625 C 69.695312 3.957031 69.351562 4.359375 69.125 4.792969 C 68.921875 5.175781 68.808594 5.574219 68.785156 5.976562 L 68.777344 5.976562 C 68.777344 5.988281 68.78125 6.003906 68.78125 6.015625 C 68.746094 6.769531 69.023438 7.515625 69.601562 8.234375 C 69.394531 8.878906 69.167969 10.207031 69.144531 11.234375 C 68.753906 10.769531 68.058594 10.730469 67.925781 10.730469 C 67.359375 10.269531 66.765625 10.046875 66.164062 10.070312 C 66.15625 10.066406 66.148438 10.066406 66.136719 10.066406 L 66.136719 10.070312 C 65.816406 10.082031 65.503906 10.167969 65.203125 10.316406 L 65.1875 10.320312 C 64.839844 10.496094 64.515625 10.757812 64.25 11.074219 C 63.96875 11.414062 63.765625 11.796875 63.679688 12.160156 L 63.667969 12.203125 L 63.707031 12.222656 C 64.078125 12.441406 64.476562 12.578125 64.890625 12.625 C 65.007812 12.640625 65.125 12.648438 65.246094 12.648438 C 65.53125 12.648438 65.820312 12.605469 66.105469 12.523438 C 66.390625 12.441406 66.664062 12.320312 66.917969 12.164062 C 67.34375 11.894531 67.671875 11.546875 67.84375 11.179688 C 68.082031 11.21875 68.308594 11.261719 68.519531 11.429688 C 68.769531 11.632812 68.96875 12.011719 69.121094 12.582031 C 69.308594 13.289062 69.351562 14.054688 69.355469 14.597656 C 68.339844 14.636719 68.132812 15.242188 67.972656 15.730469 C 67.882812 15.992188 67.804688 16.21875 67.621094 16.3125 C 67.109375 16.273438 66.871094 16.546875 66.796875 16.730469 C 66.660156 16.726562 66.25 16.734375 66.023438 16.933594 C 65.945312 17 65.898438 17.082031 65.878906 17.179688 C 64.824219 17.140625 64.75 17.828125 64.710938 18.160156 C 64.707031 18.222656 64.699219 18.292969 64.6875 18.320312 C 64.464844 18.308594 64.222656 18.71875 63.996094 19.164062 C 63.875 19.410156 63.476562 19.894531 63.105469 19.738281 C 62.878906 19.640625 62.632812 19.644531 62.433594 19.753906 C 62.230469 19.859375 62.097656 20.046875 62.050781 20.289062 C 61.984375 20.648438 61.609375 20.792969 61.214844 20.945312 C 61.121094 20.980469 61.023438 21.015625 60.933594 21.058594 C 60.578125 21.210938 60.238281 21.71875 60.335938 21.949219 C 60.363281 22.015625 60.445312 22.109375 60.695312 22.03125 C 60.726562 22.179688 60.792969 22.292969 60.898438 22.367188 C 61.0625 22.484375 61.265625 22.476562 61.351562 22.464844 C 61.398438 22.535156 61.519531 22.675781 61.738281 22.738281 C 62.011719 22.8125 62.34375 22.738281 62.71875 22.511719 C 63.226562 22.207031 63.550781 22.101562 63.792969 22.167969 C 63.96875 22.214844 64.113281 22.347656 64.242188 22.578125 C 64.472656 23 64.878906 22.824219 65.207031 22.679688 C 65.445312 22.578125 65.671875 22.476562 65.800781 22.59375 C 66.082031 22.851562 66.613281 22.808594 67 22.773438 C 67.148438 22.761719 67.273438 22.753906 67.351562 22.761719 C 67.402344 22.765625 67.5 22.78125 67.621094 22.796875 C 68.234375 22.886719 69.507812 23.066406 70.046875 22.878906 C 70.699219 22.648438 71.984375 22.316406 73.253906 22.699219 C 74.023438 22.929688 74.496094 22.839844 74.804688 22.78125 C 75.027344 22.738281 75.164062 22.710938 75.292969 22.808594 C 75.46875 22.941406 75.898438 23.015625 76.394531 23.015625 C 76.988281 23.015625 77.679688 22.914062 78.152344 22.695312 C 78.542969 22.515625 78.921875 22.585938 79.253906 22.648438 C 79.632812 22.71875 79.992188 22.785156 80.15625 22.363281 C 80.335938 21.894531 79.945312 21.695312 79.628906 21.53125 Z M 79.628906 21.53125 " fill-opacity="1" fill-rule="nonzero"/></g><path fill="#099602" d="M 75.425781 7.941406 C 75.125 7.859375 74.34375 7.972656 73.503906 8.195312 C 73.519531 8.175781 74.0625 7.519531 74.257812 7.386719 C 74.71875 7.496094 75.128906 7.695312 75.425781 7.941406 Z M 75.425781 7.941406 " fill-opacity="1" fill-rule="nonzero"/><path fill="#099602" d="M 73.503906 8.195312 C 74.34375 7.972656 75.125 7.859375 75.425781 7.941406 C 75.246094 8.375 74.988281 8.730469 74.6875 9.015625 C 74.6875 9.015625 73.789062 8.382812 73.503906 8.195312 Z M 73.503906 8.195312 " fill-opacity="1" fill-rule="nonzero"/><path fill="#099602" d="M 74.257812 7.386719 C 74.0625 7.519531 73.519531 8.175781 73.503906 8.195312 C 73.128906 8.296875 72.742188 8.417969 72.378906 8.558594 L 72.988281 7.335938 C 73.414062 7.261719 73.855469 7.289062 74.257812 7.386719 Z M 74.257812 7.386719 " fill-opacity="1" fill-rule="nonzero"/><path fill="#099602" d="M 73.601562 9.683594 C 73.300781 9.796875 72.988281 9.863281 72.6875 9.890625 L 72.6875 9.886719 C 72.464844 9.746094 71.558594 8.941406 71.558594 8.941406 C 71.796875 8.804688 72.078125 8.675781 72.378906 8.558594 Z M 73.601562 9.683594 " fill-opacity="1" fill-rule="nonzero"/><path fill="#099602" d="M 72.378906 8.558594 C 72.742188 8.417969 73.128906 8.296875 73.503906 8.195312 C 73.789062 8.382812 74.6875 9.015625 74.6875 9.015625 C 74.363281 9.320312 73.988281 9.542969 73.601562 9.6875 L 73.601562 9.683594 Z M 72.378906 8.558594 " fill-opacity="1" fill-rule="nonzero"/><path fill="#099602" d="M 72.988281 7.335938 L 72.378906 8.558594 C 72.082031 8.675781 71.796875 8.804688 71.558594 8.941406 C 71.5625 8.867188 71.824219 7.929688 72.019531 7.722656 C 72.316406 7.519531 72.648438 7.394531 72.988281 7.335938 Z M 72.988281 7.335938 " fill-opacity="1" fill-rule="nonzero"/><path fill="#099602" d="M 69.902344 6.277344 L 71.863281 5.953125 C 71.753906 6.320312 71.589844 6.65625 71.394531 6.957031 C 71.097656 7.058594 69.667969 7.320312 69.667969 7.320312 C 69.714844 7 69.796875 6.644531 69.902344 6.277344 Z M 69.902344 6.277344 " fill-opacity="1" fill-rule="nonzero"/><path fill="#099602" d="M 71.558594 8.941406 C 71.558594 8.941406 72.464844 9.746094 72.6875 9.886719 L 72.6875 9.890625 C 71.980469 9.945312 71.324219 9.765625 70.949219 9.398438 C 71.085938 9.238281 71.296875 9.085938 71.558594 8.941406 Z M 71.558594 8.941406 " fill-opacity="1" fill-rule="nonzero"/><g clip-path="url(#61a18689f5)"><path fill="#099602" d="M 71.523438 2.984375 C 71.808594 3.46875 71.960938 3.96875 72.011719 4.453125 C 72.011719 4.453125 70.757812 4.835938 70.371094 4.964844 C 70.765625 4.019531 71.230469 3.207031 71.523438 2.984375 Z M 71.523438 2.984375 " fill-opacity="1" fill-rule="nonzero"/></g><path fill="#099602" d="M 70.949219 9.398438 C 70.992188 9.234375 71.039062 9.082031 71.09375 8.941406 C 71.308594 8.382812 71.636719 7.988281 72.019531 7.722656 C 71.824219 7.929688 71.5625 8.867188 71.558594 8.941406 C 71.296875 9.085938 71.085938 9.238281 70.949219 9.398438 Z M 70.949219 9.398438 " fill-opacity="1" fill-rule="nonzero"/><path fill="#099602" d="M 69.671875 7.324219 C 69.671875 7.324219 71.097656 7.058594 71.394531 6.957031 C 71.007812 7.546875 70.488281 7.980469 69.960938 8.152344 C 69.863281 8.183594 69.765625 8.207031 69.667969 8.222656 C 69.617188 7.980469 69.621094 7.667969 69.671875 7.324219 Z M 69.671875 7.324219 " fill-opacity="1" fill-rule="nonzero"/><g clip-path="url(#61a7c9d685)"><path fill="#099602" d="M 71.523438 2.984375 C 71.230469 3.207031 70.765625 4.019531 70.371094 4.964844 C 70.363281 4.933594 70.132812 3.953125 70.148438 3.671875 C 70.585938 3.324219 71.074219 3.082031 71.523438 2.984375 Z M 71.523438 2.984375 " fill-opacity="1" fill-rule="nonzero"/></g><path fill="#099602" d="M 70.371094 4.964844 C 70.757812 4.835938 72.011719 4.453125 72.011719 4.453125 C 72.070312 4.976562 72.007812 5.488281 71.863281 5.953125 L 69.902344 6.277344 C 70.03125 5.839844 70.195312 5.390625 70.371094 4.964844 Z M 70.371094 4.964844 " fill-opacity="1" fill-rule="nonzero"/><path fill="#099602" d="M 69.179688 4.820312 C 69.417969 4.371094 69.761719 3.980469 70.148438 3.671875 C 70.132812 3.953125 70.363281 4.933594 70.371094 4.964844 C 70.195312 5.390625 70.03125 5.839844 69.902344 6.277344 Z M 69.179688 4.820312 " fill-opacity="1" fill-rule="nonzero"/><path fill="#099602" d="M 69.179688 4.820312 L 69.902344 6.277344 C 69.796875 6.644531 69.714844 7 69.671875 7.320312 C 69.605469 7.265625 68.898438 6.34375 68.84375 6.011719 C 68.863281 5.585938 68.988281 5.183594 69.179688 4.820312 Z M 69.179688 4.820312 " fill-opacity="1" fill-rule="nonzero"/><path fill="#099602" d="M 69.667969 8.222656 C 69.039062 7.449219 68.808594 6.695312 68.84375 6.011719 C 68.898438 6.34375 69.605469 7.265625 69.671875 7.320312 C 69.621094 7.667969 69.617188 7.980469 69.667969 8.222656 Z M 69.667969 8.222656 " fill-opacity="1" fill-rule="nonzero"/><g clip-path="url(#10690ad6e3)"><path fill="#82523a" d="M 67.632812 16.371094 C 68.238281 16.101562 67.804688 14.683594 69.417969 14.652344 C 69.417969 15.09375 69.390625 15.386719 69.390625 15.386719 C 69.390625 15.386719 69.746094 15.253906 70.03125 15.386719 C 70 15.269531 69.964844 15.046875 69.929688 14.757812 C 71.324219 14.878906 71.421875 15.921875 72.058594 16.074219 C 72.695312 16.222656 73.605469 16.101562 73.941406 16.523438 C 74.273438 16.941406 74.273438 17.722656 74.820312 17.722656 C 75.367188 17.722656 75.761719 17.78125 75.820312 18.054688 C 75.882812 18.324219 76.640625 18.023438 76.945312 18.414062 C 77.246094 18.800781 77.429688 20.0625 78.035156 20.332031 C 78.640625 20.601562 79.097656 20.78125 79.15625 21.203125 C 79.21875 21.621094 80.371094 21.636719 80.097656 22.34375 C 79.824219 23.046875 79.007812 22.238281 78.125 22.640625 C 77.246094 23.046875 75.683594 23.03125 75.328125 22.761719 C 74.972656 22.492188 74.578125 23.03125 73.273438 22.640625 C 71.96875 22.25 70.664062 22.597656 70.027344 22.820312 C 69.390625 23.046875 67.660156 22.730469 67.359375 22.703125 C 67.054688 22.671875 66.207031 22.882812 65.839844 22.550781 C 65.476562 22.222656 64.660156 23.210938 64.292969 22.550781 C 63.929688 21.890625 63.433594 22.011719 62.6875 22.460938 C 61.714844 23.046875 61.382812 22.402344 61.382812 22.402344 C 61.382812 22.402344 60.804688 22.519531 60.746094 21.953125 C 60.046875 22.222656 60.472656 21.320312 60.957031 21.113281 C 61.441406 20.902344 62.019531 20.78125 62.109375 20.300781 C 62.203125 19.820312 62.65625 19.613281 63.082031 19.792969 C 63.503906 19.972656 63.929688 19.433594 64.050781 19.191406 C 64.171875 18.953125 64.476562 18.351562 64.6875 18.382812 C 64.902344 18.414062 64.476562 17.152344 65.933594 17.242188 C 65.964844 16.734375 66.84375 16.792969 66.84375 16.792969 C 66.84375 16.792969 66.964844 16.3125 67.632812 16.371094 Z M 67.632812 16.371094 " fill-opacity="1" fill-rule="nonzero"/></g><path fill="#92af2b" d="M 67.902344 10.789062 C 67.902344 10.789062 68.839844 10.78125 69.203125 11.421875 C 69.203125 10.375 69.449219 8.878906 69.667969 8.222656 C 69.765625 8.207031 69.863281 8.183594 69.964844 8.152344 C 69.882812 8.394531 69.734375 9.980469 69.734375 9.980469 C 70.113281 9.558594 70.640625 9.128906 71.09375 8.941406 C 71.039062 9.082031 70.992188 9.234375 70.949219 9.398438 C 70.535156 9.683594 69.777344 10.511719 69.671875 11.117188 C 69.585938 11.597656 69.777344 13.652344 69.929688 14.761719 C 69.96875 15.046875 70.003906 15.269531 70.03125 15.386719 C 69.746094 15.253906 69.390625 15.386719 69.390625 15.386719 C 69.390625 15.386719 69.417969 15.09375 69.417969 14.65625 C 69.417969 14.09375 69.371094 13.300781 69.179688 12.566406 C 69.003906 11.914062 68.789062 11.574219 68.554688 11.382812 C 68.320312 11.195312 68.066406 11.160156 67.808594 11.117188 C 67.851562 11.007812 67.886719 10.898438 67.902344 10.789062 Z M 67.902344 10.789062 " fill-opacity="1" fill-rule="nonzero"/><path fill="#099602" d="M 67.902344 10.789062 C 67.710938 10.746094 67.464844 10.746094 67.191406 10.78125 C 67.140625 10.730469 66.421875 10.175781 66.160156 10.128906 C 66.703125 10.109375 67.296875 10.292969 67.902344 10.789062 Z M 67.902344 10.789062 " fill-opacity="1" fill-rule="nonzero"/><path fill="#099602" d="M 67.902344 10.789062 L 67.804688 11.117188 C 67.648438 11.484375 67.316406 11.84375 66.882812 12.113281 C 66.96875 11.882812 67.191406 10.78125 67.191406 10.78125 C 67.464844 10.746094 67.710938 10.746094 67.902344 10.789062 Z M 67.902344 10.789062 " fill-opacity="1" fill-rule="nonzero"/><path fill="#099602" d="M 67.191406 10.78125 C 67.191406 10.78125 66.96875 11.882812 66.882812 12.113281 C 66.644531 12.261719 66.375 12.386719 66.085938 12.46875 L 66.363281 10.953125 C 66.652344 10.875 66.933594 10.8125 67.191406 10.78125 Z M 67.191406 10.78125 " fill-opacity="1" fill-rule="nonzero"/><path fill="#099602" d="M 66.160156 10.128906 C 66.421875 10.175781 67.140625 10.730469 67.191406 10.78125 C 66.933594 10.8125 66.652344 10.875 66.363281 10.953125 L 65.214844 10.375 C 65.503906 10.230469 65.824219 10.140625 66.160156 10.128906 Z M 66.160156 10.128906 " fill-opacity="1" fill-rule="nonzero"/><path fill="#099602" d="M 65.316406 11.300781 C 65.652344 11.167969 66.011719 11.046875 66.363281 10.953125 L 66.085938 12.46875 C 65.714844 12.574219 65.3125 12.617188 64.898438 12.566406 C 64.898438 12.566406 65.210938 11.601562 65.316406 11.300781 Z M 65.316406 11.300781 " fill-opacity="1" fill-rule="nonzero"/><path fill="#099602" d="M 65.316406 11.300781 C 65.210938 11.601562 64.898438 12.566406 64.898438 12.566406 C 64.511719 12.523438 64.121094 12.398438 63.738281 12.171875 C 63.917969 11.949219 64.5625 11.597656 65.316406 11.300781 Z M 65.316406 11.300781 " fill-opacity="1" fill-rule="nonzero"/><path fill="#099602" d="M 64.296875 11.117188 C 64.515625 11.105469 65.28125 11.292969 65.316406 11.300781 C 64.5625 11.597656 63.917969 11.949219 63.738281 12.171875 C 63.820312 11.828125 64.015625 11.449219 64.296875 11.117188 Z M 64.296875 11.117188 " fill-opacity="1" fill-rule="nonzero"/><path fill="#099602" d="M 64.296875 11.117188 C 64.542969 10.820312 64.855469 10.554688 65.214844 10.375 L 66.363281 10.953125 C 66.011719 11.046875 65.652344 11.167969 65.316406 11.300781 C 65.28125 11.292969 64.515625 11.105469 64.296875 11.117188 Z M 64.296875 11.117188 " fill-opacity="1" fill-rule="nonzero"/><path fill="#3f1e10" d="M 72.992188 17.484375 C 72.886719 17.433594 72.742188 17.445312 72.613281 17.507812 L 72.667969 17.617188 C 72.761719 17.570312 72.871094 17.558594 72.941406 17.589844 C 72.988281 17.613281 73.015625 17.648438 73.027344 17.699219 L 73.144531 17.667969 C 73.125 17.582031 73.070312 17.519531 72.992188 17.484375 Z M 72.992188 17.484375 " fill-opacity="1" fill-rule="nonzero"/><path fill="#3f1e10" d="M 72.5 20.296875 C 72.191406 20.421875 72.054688 20.953125 72.011719 21.152344 C 71.765625 21.125 71.558594 21.171875 71.382812 21.300781 L 71.453125 21.398438 C 71.617188 21.28125 71.8125 21.242188 72.050781 21.28125 L 72.113281 21.289062 L 72.121094 21.230469 C 72.179688 20.90625 72.324219 20.496094 72.546875 20.40625 C 72.636719 20.371094 72.734375 20.390625 72.847656 20.472656 L 72.917969 20.375 C 72.773438 20.269531 72.628906 20.242188 72.5 20.296875 Z M 72.5 20.296875 " fill-opacity="1" fill-rule="nonzero"/><path fill="#3f1e10" d="M 64.96875 21.230469 C 64.855469 21.222656 64.742188 21.210938 64.636719 21.171875 C 64.523438 21.128906 64.46875 21.066406 64.394531 20.976562 C 64.351562 20.921875 64.300781 20.863281 64.230469 20.800781 C 63.894531 20.5 63.507812 20.488281 63.039062 20.773438 L 63.101562 20.875 C 63.527344 20.617188 63.851562 20.621094 64.148438 20.890625 C 64.210938 20.945312 64.257812 21 64.300781 21.050781 C 64.378906 21.144531 64.449219 21.230469 64.59375 21.285156 C 64.71875 21.328125 64.839844 21.339844 64.957031 21.347656 C 65.167969 21.367188 65.347656 21.378906 65.503906 21.585938 L 65.601562 21.511719 C 65.410156 21.265625 65.1875 21.246094 64.96875 21.230469 Z M 64.96875 21.230469 " fill-opacity="1" fill-rule="nonzero"/><path fill="#3f1e10" d="M 68.949219 16.378906 C 69.027344 16.382812 69.085938 16.4375 69.121094 16.535156 L 69.234375 16.496094 C 69.183594 16.351562 69.082031 16.265625 68.957031 16.257812 C 68.816406 16.25 68.667969 16.34375 68.59375 16.488281 L 68.703125 16.542969 C 68.753906 16.441406 68.855469 16.371094 68.949219 16.378906 Z M 68.949219 16.378906 " fill-opacity="1" fill-rule="nonzero"/><path fill="#3f1e10" d="M 68.015625 17.34375 C 68.195312 17.355469 68.355469 17.464844 68.484375 17.664062 L 68.527344 17.726562 L 68.578125 17.675781 C 68.667969 17.589844 68.800781 17.554688 68.914062 17.582031 C 68.972656 17.597656 69.046875 17.636719 69.078125 17.742188 L 69.195312 17.707031 C 69.15625 17.582031 69.066406 17.5 68.945312 17.46875 C 68.816406 17.433594 68.664062 17.464844 68.550781 17.542969 C 68.40625 17.351562 68.222656 17.238281 68.023438 17.226562 C 67.808594 17.210938 67.59375 17.320312 67.421875 17.523438 L 67.511719 17.601562 C 67.664062 17.425781 67.839844 17.332031 68.015625 17.34375 Z M 68.015625 17.34375 " fill-opacity="1" fill-rule="nonzero"/><path fill="#3f1e10" d="M 77.050781 21.453125 C 76.824219 21.382812 76.546875 21.441406 76.386719 21.585938 L 76.46875 21.671875 C 76.59375 21.558594 76.832031 21.511719 77.015625 21.566406 C 77.09375 21.59375 77.195312 21.644531 77.222656 21.761719 L 77.339844 21.738281 C 77.308594 21.601562 77.207031 21.5 77.050781 21.453125 Z M 77.050781 21.453125 " fill-opacity="1" fill-rule="nonzero"/><path fill="#3f1e10" d="M 76.613281 20.558594 L 76.730469 20.527344 C 76.648438 20.265625 76.492188 20.078125 76.265625 19.988281 C 75.996094 19.875 75.636719 19.914062 75.277344 20.09375 C 75.183594 19.894531 75.039062 19.652344 74.828125 19.566406 C 74.667969 19.5 74.503906 19.527344 74.347656 19.554688 C 74.144531 19.589844 73.96875 19.621094 73.824219 19.457031 L 73.734375 19.535156 C 73.921875 19.753906 74.160156 19.710938 74.367188 19.675781 C 74.515625 19.648438 74.652344 19.625 74.78125 19.675781 C 74.972656 19.753906 75.109375 20.011719 75.195312 20.203125 L 75.222656 20.261719 L 75.28125 20.230469 C 75.625 20.042969 75.96875 19.996094 76.222656 20.097656 C 76.410156 20.175781 76.546875 20.335938 76.613281 20.558594 Z M 76.613281 20.558594 " fill-opacity="1" fill-rule="nonzero"/><path fill="#3f1e10" d="M 69.671875 18.894531 C 69.546875 19.070312 69.429688 19.234375 69.273438 19.3125 C 69.175781 19.363281 69.066406 19.367188 68.953125 19.371094 C 68.78125 19.375 68.585938 19.378906 68.402344 19.566406 C 68.324219 19.648438 68.285156 19.714844 68.253906 19.765625 C 68.207031 19.847656 68.1875 19.882812 68.054688 19.910156 C 67.960938 19.929688 67.878906 19.9375 67.800781 19.949219 C 67.601562 19.972656 67.445312 19.996094 67.230469 20.128906 L 67.296875 20.230469 C 67.488281 20.109375 67.625 20.09375 67.816406 20.066406 C 67.894531 20.058594 67.980469 20.046875 68.078125 20.027344 C 68.253906 19.992188 68.300781 19.929688 68.359375 19.828125 C 68.390625 19.777344 68.421875 19.71875 68.492188 19.652344 C 68.640625 19.5 68.792969 19.496094 68.957031 19.492188 C 69.078125 19.488281 69.203125 19.484375 69.328125 19.421875 C 69.511719 19.328125 69.644531 19.144531 69.769531 18.964844 C 70 18.640625 70.199219 18.363281 70.660156 18.546875 L 70.707031 18.433594 C 70.152344 18.214844 69.898438 18.578125 69.671875 18.894531 Z M 69.671875 18.894531 " fill-opacity="1" fill-rule="nonzero"/><g clip-path="url(#9f33378475)"><path fill="#3f1e10" d="M 79.628906 21.53125 C 79.429688 21.429688 79.238281 21.332031 79.21875 21.195312 C 79.15625 20.761719 78.714844 20.566406 78.15625 20.320312 L 78.0625 20.277344 C 77.695312 20.113281 77.488281 19.554688 77.304688 19.0625 C 77.199219 18.773438 77.105469 18.523438 76.992188 18.375 C 76.808594 18.140625 76.488281 18.132812 76.230469 18.125 C 76.023438 18.121094 75.894531 18.113281 75.878906 18.039062 C 75.804688 17.707031 75.328125 17.664062 74.820312 17.664062 C 74.511719 17.664062 74.398438 17.375 74.265625 17.039062 C 74.191406 16.84375 74.113281 16.644531 73.988281 16.484375 C 73.75 16.183594 73.246094 16.144531 72.757812 16.101562 C 72.523438 16.082031 72.28125 16.0625 72.074219 16.015625 C 71.847656 15.960938 71.6875 15.777344 71.503906 15.566406 C 71.203125 15.21875 70.828125 14.792969 69.980469 14.703125 C 69.824219 13.523438 69.652344 11.574219 69.730469 11.125 C 69.824219 10.582031 70.507812 9.792969 70.945312 9.476562 C 71.285156 9.785156 71.828125 9.957031 72.433594 9.957031 C 72.519531 9.957031 72.605469 9.953125 72.691406 9.949219 C 73.007812 9.921875 73.324219 9.851562 73.625 9.742188 C 74.042969 9.585938 74.414062 9.355469 74.730469 9.058594 C 75.054688 8.753906 75.304688 8.382812 75.480469 7.960938 L 75.5 7.921875 L 75.464844 7.894531 C 75.15625 7.636719 74.730469 7.4375 74.273438 7.328125 C 73.835938 7.222656 73.390625 7.203125 72.976562 7.277344 C 72.617188 7.339844 72.289062 7.46875 72.003906 7.660156 L 72 7.65625 C 71.992188 7.664062 71.984375 7.671875 71.976562 7.679688 C 71.566406 7.960938 71.253906 8.371094 71.046875 8.894531 C 70.664062 9.058594 70.203125 9.402344 69.808594 9.808594 C 69.863281 9.261719 69.957031 8.417969 70.011719 8.199219 C 70.53125 8.019531 71.042969 7.589844 71.425781 7.015625 L 71.445312 6.988281 C 71.652344 6.675781 71.8125 6.332031 71.921875 5.972656 C 72.078125 5.46875 72.128906 4.957031 72.074219 4.449219 C 72.015625 3.925781 71.847656 3.421875 71.574219 2.953125 L 71.554688 2.917969 L 71.507812 2.925781 C 71.042969 3.027344 70.546875 3.277344 70.109375 3.625 C 69.695312 3.957031 69.351562 4.359375 69.125 4.792969 C 68.921875 5.175781 68.808594 5.574219 68.785156 5.976562 L 68.777344 5.976562 C 68.777344 5.988281 68.78125 6.003906 68.78125 6.015625 C 68.746094 6.769531 69.023438 7.515625 69.601562 8.234375 C 69.394531 8.878906 69.167969 10.207031 69.144531 11.234375 C 68.753906 10.769531 68.058594 10.730469 67.925781 10.730469 C 67.359375 10.269531 66.765625 10.046875 66.164062 10.070312 C 66.15625 10.066406 66.148438 10.066406 66.136719 10.066406 L 66.136719 10.070312 C 65.816406 10.082031 65.503906 10.167969 65.203125 10.316406 L 65.1875 10.320312 C 64.839844 10.496094 64.515625 10.757812 64.25 11.074219 C 63.96875 11.414062 63.765625 11.796875 63.679688 12.160156 L 63.667969 12.203125 L 63.707031 12.222656 C 64.078125 12.441406 64.476562 12.578125 64.890625 12.625 C 65.007812 12.640625 65.125 12.648438 65.246094 12.648438 C 65.53125 12.648438 65.820312 12.605469 66.105469 12.523438 C 66.390625 12.441406 66.664062 12.320312 66.917969 12.164062 C 67.34375 11.894531 67.671875 11.546875 67.84375 11.179688 C 68.082031 11.21875 68.308594 11.261719 68.519531 11.429688 C 68.769531 11.632812 68.96875 12.011719 69.121094 12.582031 C 69.308594 13.289062 69.351562 14.054688 69.355469 14.597656 C 68.339844 14.636719 68.132812 15.242188 67.972656 15.730469 C 67.882812 15.992188 67.804688 16.21875 67.621094 16.3125 C 67.109375 16.273438 66.871094 16.546875 66.796875 16.730469 C 66.660156 16.726562 66.25 16.734375 66.023438 16.933594 C 65.945312 17 65.898438 17.082031 65.878906 17.179688 C 64.824219 17.140625 64.75 17.828125 64.710938 18.160156 C 64.707031 18.222656 64.699219 18.292969 64.6875 18.320312 C 64.464844 18.308594 64.222656 18.71875 63.996094 19.164062 C 63.875 19.410156 63.476562 19.894531 63.105469 19.738281 C 62.878906 19.640625 62.632812 19.644531 62.433594 19.753906 C 62.230469 19.859375 62.097656 20.046875 62.050781 20.289062 C 61.984375 20.648438 61.609375 20.792969 61.214844 20.945312 C 61.121094 20.980469 61.023438 21.015625 60.933594 21.058594 C 60.578125 21.210938 60.238281 21.71875 60.335938 21.949219 C 60.363281 22.015625 60.445312 22.109375 60.695312 22.03125 C 60.726562 22.179688 60.792969 22.292969 60.898438 22.367188 C 61.0625 22.484375 61.265625 22.476562 61.351562 22.464844 C 61.398438 22.535156 61.519531 22.675781 61.738281 22.738281 C 62.011719 22.8125 62.34375 22.738281 62.71875 22.511719 C 63.226562 22.207031 63.550781 22.101562 63.792969 22.167969 C 63.96875 22.214844 64.113281 22.347656 64.242188 22.578125 C 64.472656 23 64.878906 22.824219 65.207031 22.679688 C 65.445312 22.578125 65.671875 22.476562 65.800781 22.59375 C 66.082031 22.851562 66.613281 22.808594 67 22.773438 C 67.148438 22.761719 67.273438 22.753906 67.351562 22.761719 C 67.402344 22.765625 67.5 22.78125 67.621094 22.796875 C 68.234375 22.886719 69.507812 23.066406 70.046875 22.878906 C 70.699219 22.648438 71.984375 22.316406 73.253906 22.699219 C 74.023438 22.929688 74.496094 22.839844 74.804688 22.78125 C 75.027344 22.738281 75.164062 22.710938 75.292969 22.808594 C 75.46875 22.941406 75.898438 23.015625 76.394531 23.015625 C 76.988281 23.015625 77.679688 22.914062 78.152344 22.695312 C 78.542969 22.515625 78.921875 22.585938 79.253906 22.648438 C 79.632812 22.71875 79.992188 22.785156 80.15625 22.363281 C 80.335938 21.894531 79.945312 21.695312 79.628906 21.53125 Z M 71.035156 9.394531 C 71.15625 9.269531 71.328125 9.140625 71.550781 9.015625 C 71.691406 9.136719 72.226562 9.609375 72.515625 9.835938 C 71.910156 9.851562 71.371094 9.691406 71.035156 9.394531 Z M 72.058594 7.769531 C 72.300781 7.605469 72.578125 7.484375 72.878906 7.417969 L 72.335938 8.511719 C 72.078125 8.613281 71.847656 8.71875 71.644531 8.824219 C 71.71875 8.550781 71.914062 7.929688 72.058594 7.769531 Z M 74.273438 7.449219 C 74.621094 7.539062 74.945312 7.679688 75.210938 7.855469 C 74.863281 7.847656 74.304688 7.929688 73.671875 8.089844 C 73.894531 7.828125 74.148438 7.546875 74.273438 7.449219 Z M 73.492188 8.261719 C 73.75 8.429688 74.390625 8.878906 74.589844 9.019531 C 74.308594 9.273438 73.980469 9.476562 73.613281 9.617188 L 72.492188 8.582031 C 72.804688 8.464844 73.148438 8.355469 73.492188 8.261719 Z M 71.660156 8.953125 C 71.867188 8.84375 72.101562 8.734375 72.367188 8.628906 L 73.488281 9.664062 C 73.234375 9.75 72.96875 9.804688 72.703125 9.828125 C 72.5 9.6875 71.867188 9.132812 71.660156 8.953125 Z M 74.679688 8.9375 C 74.523438 8.824219 73.953125 8.425781 73.648438 8.21875 C 74.382812 8.03125 75.03125 7.941406 75.339844 7.984375 C 75.179688 8.347656 74.957031 8.667969 74.679688 8.9375 Z M 74.125 7.417969 C 73.921875 7.605469 73.59375 7.992188 73.46875 8.144531 C 73.136719 8.230469 72.804688 8.335938 72.503906 8.449219 L 73.03125 7.390625 C 73.378906 7.335938 73.753906 7.34375 74.125 7.417969 Z M 71.808594 7.96875 C 71.664062 8.296875 71.53125 8.765625 71.503906 8.902344 C 71.332031 9 71.183594 9.101562 71.066406 9.199219 C 71.09375 9.117188 71.121094 9.039062 71.148438 8.960938 C 71.304688 8.558594 71.527344 8.226562 71.808594 7.96875 Z M 69.945312 8.097656 C 69.867188 8.121094 69.792969 8.140625 69.714844 8.152344 C 69.679688 7.945312 69.683594 7.683594 69.722656 7.375 C 69.933594 7.335938 70.828125 7.167969 71.25 7.058594 C 70.882812 7.566406 70.414062 7.941406 69.945312 8.097656 Z M 69.839844 6.285156 C 69.746094 6.609375 69.675781 6.910156 69.628906 7.183594 C 69.429688 6.933594 68.953125 6.269531 68.902344 6.007812 C 68.921875 5.652344 69.015625 5.296875 69.179688 4.957031 Z M 69.605469 7.339844 C 69.574219 7.59375 69.5625 7.816406 69.578125 8.007812 C 69.171875 7.460938 68.949219 6.898438 68.90625 6.332031 C 69.113281 6.714844 69.503906 7.21875 69.605469 7.339844 Z M 71.363281 6.898438 L 71.355469 6.90625 C 71.078125 6.996094 70.042969 7.191406 69.742188 7.246094 C 69.785156 6.972656 69.855469 6.664062 69.953125 6.332031 L 71.777344 6.03125 C 71.675781 6.335938 71.535156 6.628906 71.363281 6.898438 Z M 71.816406 5.902344 L 69.988281 6.203125 C 70.105469 5.820312 70.25 5.414062 70.417969 5.011719 C 70.769531 4.898438 71.695312 4.613281 71.960938 4.535156 C 72 4.988281 71.953125 5.449219 71.816406 5.902344 Z M 70.207031 3.703125 C 70.558594 3.425781 70.945312 3.21875 71.320312 3.101562 C 71.054688 3.414062 70.710938 4.027344 70.390625 4.769531 C 70.296875 4.355469 70.207031 3.890625 70.207031 3.703125 Z M 71.945312 4.410156 C 71.738281 4.476562 70.894531 4.730469 70.476562 4.867188 C 70.839844 4.023438 71.238281 3.328125 71.503906 3.078125 C 71.742188 3.5 71.890625 3.949219 71.945312 4.410156 Z M 70.089844 3.796875 C 70.117188 4.121094 70.257812 4.738281 70.308594 4.960938 C 70.148438 5.347656 70.003906 5.742188 69.890625 6.113281 L 69.246094 4.824219 C 69.449219 4.445312 69.738281 4.09375 70.089844 3.796875 Z M 66.832031 12.074219 C 66.625 12.203125 66.398438 12.304688 66.164062 12.382812 L 66.414062 11 C 66.667969 10.933594 66.902344 10.882812 67.113281 10.851562 C 67.0625 11.105469 66.90625 11.859375 66.832031 12.074219 Z M 66.15625 10.1875 C 66.351562 10.226562 66.839844 10.574219 67.046875 10.742188 C 66.839844 10.773438 66.613281 10.824219 66.367188 10.886719 L 65.351562 10.378906 C 65.613281 10.261719 65.882812 10.199219 66.15625 10.1875 Z M 67.210938 10.71875 C 67.113281 10.632812 66.761719 10.363281 66.472656 10.199219 C 66.882812 10.246094 67.292969 10.414062 67.6875 10.699219 C 67.550781 10.691406 67.390625 10.699219 67.210938 10.71875 Z M 65.214844 10.445312 L 66.195312 10.9375 C 65.910156 11.019531 65.609375 11.125 65.3125 11.238281 C 65.207031 11.214844 64.703125 11.09375 64.421875 11.0625 C 64.65625 10.804688 64.925781 10.59375 65.214844 10.445312 Z M 64.855469 12.5 C 64.5 12.453125 64.15625 12.339844 63.832031 12.160156 C 64.039062 11.957031 64.570312 11.667969 65.21875 11.40625 C 65.105469 11.730469 64.910156 12.328125 64.855469 12.5 Z M 64.324219 11.175781 C 64.484375 11.179688 64.859375 11.257812 65.117188 11.316406 C 64.570312 11.542969 64.113281 11.785156 63.859375 11.980469 C 63.957031 11.707031 64.117188 11.429688 64.324219 11.175781 Z M 64.976562 12.515625 C 65.050781 12.292969 65.269531 11.613281 65.367188 11.347656 C 65.675781 11.226562 65.988281 11.121094 66.285156 11.035156 L 66.035156 12.421875 C 65.683594 12.515625 65.328125 12.546875 64.976562 12.515625 Z M 66.988281 11.972656 C 67.074219 11.640625 67.207031 11.007812 67.242188 10.835938 C 67.472656 10.808594 67.667969 10.808594 67.824219 10.835938 L 67.75 11.09375 C 67.609375 11.414062 67.34375 11.722656 66.988281 11.972656 Z M 68.59375 11.335938 C 68.371094 11.15625 68.125 11.109375 67.890625 11.066406 C 67.917969 10.996094 67.9375 10.921875 67.953125 10.851562 C 68.144531 10.859375 68.855469 10.933594 69.148438 11.453125 L 69.261719 11.652344 L 69.261719 11.421875 C 69.261719 10.421875 69.5 8.953125 69.714844 8.273438 C 69.769531 8.265625 69.824219 8.253906 69.878906 8.238281 C 69.796875 8.664062 69.675781 9.917969 69.671875 9.976562 L 69.65625 10.15625 L 69.777344 10.019531 C 70.148438 9.605469 70.601562 9.25 70.988281 9.054688 C 70.953125 9.152344 70.925781 9.257812 70.898438 9.363281 C 70.496094 9.644531 69.722656 10.472656 69.609375 11.105469 C 69.519531 11.613281 69.726562 13.726562 69.867188 14.769531 C 69.898438 14.992188 69.925781 15.171875 69.949219 15.292969 C 69.761719 15.246094 69.566406 15.277344 69.457031 15.304688 C 69.464844 15.183594 69.476562 14.953125 69.476562 14.65625 C 69.476562 14.105469 69.433594 13.296875 69.238281 12.554688 C 69.074219 11.949219 68.871094 11.5625 68.59375 11.335938 Z M 80.042969 22.320312 C 79.917969 22.636719 79.695312 22.609375 79.277344 22.53125 C 78.941406 22.46875 78.527344 22.390625 78.101562 22.585938 C 77.222656 22.992188 75.691406 22.960938 75.367188 22.714844 C 75.195312 22.585938 75.011719 22.621094 74.78125 22.664062 C 74.464844 22.722656 74.03125 22.804688 73.292969 22.585938 C 71.988281 22.195312 70.675781 22.53125 70.007812 22.765625 C 69.496094 22.945312 68.195312 22.757812 67.636719 22.679688 C 67.511719 22.660156 67.417969 22.648438 67.363281 22.644531 C 67.273438 22.632812 67.144531 22.644531 66.992188 22.65625 C 66.625 22.6875 66.125 22.726562 65.882812 22.507812 C 65.695312 22.339844 65.421875 22.457031 65.15625 22.574219 C 64.777344 22.738281 64.515625 22.824219 64.347656 22.523438 C 64.203125 22.261719 64.035156 22.109375 63.828125 22.054688 C 63.542969 21.980469 63.203125 22.082031 62.65625 22.410156 C 62.3125 22.617188 62.015625 22.691406 61.773438 22.625 C 61.535156 22.558594 61.4375 22.375 61.4375 22.375 L 61.414062 22.335938 L 61.371094 22.34375 C 61.367188 22.34375 61.136719 22.390625 60.96875 22.273438 C 60.875 22.203125 60.820312 22.09375 60.804688 21.945312 L 60.796875 21.867188 L 60.722656 21.898438 C 60.574219 21.953125 60.46875 21.957031 60.445312 21.902344 C 60.386719 21.761719 60.660156 21.304688 60.984375 21.167969 C 61.070312 21.128906 61.167969 21.09375 61.257812 21.058594 C 61.667969 20.898438 62.089844 20.738281 62.171875 20.3125 C 62.210938 20.109375 62.320312 19.945312 62.488281 19.859375 C 62.65625 19.769531 62.863281 19.765625 63.058594 19.847656 C 63.511719 20.039062 63.960938 19.507812 64.105469 19.21875 C 64.441406 18.558594 64.601562 18.433594 64.679688 18.441406 C 64.707031 18.445312 64.734375 18.441406 64.757812 18.421875 C 64.808594 18.382812 64.820312 18.300781 64.832031 18.175781 C 64.871094 17.824219 64.933594 17.242188 65.929688 17.304688 L 65.988281 17.308594 L 65.992188 17.246094 C 65.996094 17.15625 66.035156 17.082031 66.105469 17.023438 C 66.335938 16.824219 66.832031 16.855469 66.839844 16.855469 L 66.886719 16.855469 L 66.902344 16.808594 C 66.90625 16.792969 67.023438 16.378906 67.625 16.433594 L 67.640625 16.433594 L 67.65625 16.429688 C 67.898438 16.320312 67.988281 16.050781 68.085938 15.765625 C 68.246094 15.292969 68.425781 14.757812 69.355469 14.714844 C 69.351562 15.113281 69.332031 15.378906 69.332031 15.382812 L 69.320312 15.476562 L 69.410156 15.445312 C 69.414062 15.441406 69.75 15.324219 70.003906 15.441406 L 70.117188 15.496094 L 70.089844 15.375 C 70.066406 15.273438 70.035156 15.085938 69.996094 14.828125 C 70.777344 14.917969 71.113281 15.304688 71.414062 15.644531 C 71.609375 15.875 71.78125 16.070312 72.046875 16.132812 C 72.261719 16.183594 72.507812 16.203125 72.75 16.222656 C 73.210938 16.261719 73.683594 16.300781 73.890625 16.5625 C 74.003906 16.703125 74.082031 16.898438 74.152344 17.082031 C 74.289062 17.429688 74.425781 17.785156 74.820312 17.785156 C 75.433594 17.785156 75.714844 17.867188 75.761719 18.066406 C 75.800781 18.234375 76.007812 18.242188 76.226562 18.246094 C 76.472656 18.253906 76.746094 18.261719 76.894531 18.449219 C 76.996094 18.582031 77.09375 18.835938 77.191406 19.105469 C 77.382812 19.621094 77.597656 20.203125 78.011719 20.386719 L 78.105469 20.429688 C 78.648438 20.671875 79.042969 20.847656 79.097656 21.210938 C 79.125 21.410156 79.34375 21.523438 79.570312 21.640625 C 79.941406 21.828125 80.175781 21.976562 80.042969 22.320312 Z M 80.042969 22.320312 " fill-opacity="1" fill-rule="nonzero"/></g></svg>